<?xml version="1.0" encoding="UTF-8"?>
<!DOCTYPE svg PUBLIC "-//W3C//DTD SVG 1.1//EN" "http://www.w3.org/Graphics/SVG/1.1/DTD/svg11.dtd">
<!-- Creator: CorelDRAW 2018 (64-Bit) -->
<svg xmlns="http://www.w3.org/2000/svg" xml:space="preserve" width="21px" height="19px" version="1.1" style="shape-rendering:geometricPrecision; text-rendering:geometricPrecision; image-rendering:optimizeQuality; fill-rule:evenodd; clip-rule:evenodd"
viewBox="0 0 21 19"
 xmlns:xlink="http://www.w3.org/1999/xlink">
 <defs>
  <style type="text/css">
   <![CDATA[
    .fil0 {fill:none}
    .fil6 {fill:#2BBE69;fill-rule:nonzero}
    .fil4 {fill:#9AE8BB;fill-rule:nonzero}
    .fil5 {fill:#9AE8BB;fill-rule:nonzero}
    .fil3 {fill:#E74C3C;fill-rule:nonzero}
    .fil1 {fill:#F29F97;fill-rule:nonzero}
    .fil2 {fill:#F29F97;fill-rule:nonzero}
   ]]>
  </style>
 </defs>
 <g id="Layer_x0020_1">
  <metadata id="CorelCorpID_0Corel-Layer"/>
  <rect class="fil0" width="21" height="19"/>
  <g id="_2784855115200">
   <g>
    <path class="fil1" d="M4.3 9.91c0,-0.22 -0.18,-0.41 -0.4,-0.41 -0.23,0 -0.41,0.19 -0.41,0.41 0,0.22 0.18,0.4 0.41,0.4 0.22,0 0.4,-0.18 0.4,-0.4zm3.24 0c0,-0.22 -0.19,-0.41 -0.41,-0.41 -0.22,0 -0.4,0.19 -0.4,0.41 0,0.22 0.18,0.4 0.4,0.4 0.22,0 0.41,-0.18 0.41,-0.4zm-2.03 -3.64c2.46,0 4.45,1.99 4.45,4.45 0,2.45 -1.99,4.45 -4.45,4.45 -2.45,0 -4.45,-2 -4.45,-4.45 0,-2.46 2,-4.45 4.45,-4.45z"/>
    <path class="fil2" d="M7.13 9.5c0.22,0 0.41,0.18 0.41,0.41 0,0.22 -0.19,0.4 -0.41,0.4 -0.22,0 -0.4,-0.18 -0.4,-0.4 0,-0.23 0.18,-0.41 0.4,-0.41z"/>
    <path class="fil2" d="M3.9 9.5c0.22,0 0.4,0.18 0.4,0.41 0,0.22 -0.18,0.4 -0.4,0.4 -0.23,0 -0.41,-0.18 -0.41,-0.4 0,-0.23 0.18,-0.41 0.41,-0.41z"/>
    <path class="fil3" d="M5.51 14.96c-2.34,0 -4.24,-1.9 -4.24,-4.24 0,-2.35 1.9,-4.25 4.24,-4.25 2.35,0 4.25,1.9 4.25,4.25 0,2.34 -1.9,4.24 -4.25,4.24zm0 -8.89c-2.56,0 -4.65,2.08 -4.65,4.65 0,2.56 2.09,4.65 4.65,4.65 2.57,0 4.65,-2.09 4.65,-4.65 0,-2.57 -2.08,-4.65 -4.65,-4.65z"/>
    <path class="fil3" d="M3.69 9.91c0,-0.11 0.09,-0.2 0.21,-0.2 0.11,0 0.2,0.09 0.2,0.2 0,0.11 -0.09,0.2 -0.2,0.2 -0.12,0 -0.21,-0.09 -0.21,-0.2zm0.81 0c0,-0.34 -0.27,-0.61 -0.6,-0.61 -0.34,0 -0.61,0.27 -0.61,0.61 0,0.33 0.27,0.61 0.61,0.61 0.33,0 0.6,-0.28 0.6,-0.61z"/>
    <path class="fil3" d="M7.13 10.11c-0.11,0 -0.2,-0.09 -0.2,-0.2 0,-0.11 0.09,-0.2 0.2,-0.2 0.11,0 0.2,0.09 0.2,0.2 0,0.11 -0.09,0.2 -0.2,0.2zm0 -0.81c-0.33,0 -0.6,0.27 -0.6,0.61 0,0.33 0.27,0.61 0.6,0.61 0.34,0 0.61,-0.28 0.61,-0.61 0,-0.34 -0.27,-0.61 -0.61,-0.61z"/>
    <path class="fil3" d="M5.51 11.73c-0.75,0 -1.47,0.32 -1.97,0.87 -0.07,0.09 -0.06,0.22 0.02,0.29 0.08,0.07 0.21,0.07 0.28,-0.02 0.43,-0.47 1.04,-0.74 1.67,-0.74 0.64,0 1.25,0.27 1.67,0.74 0.04,0.05 0.1,0.07 0.15,0.07 0.05,0 0.1,-0.01 0.14,-0.05 0.08,-0.07 0.09,-0.2 0.01,-0.29 -0.49,-0.55 -1.21,-0.87 -1.97,-0.87z"/>
   </g>
   <g>
    <path class="fil4" d="M14.27 7.47c0,-0.22 -0.18,-0.4 -0.4,-0.4 -0.22,0 -0.41,0.18 -0.41,0.4 0,0.23 0.19,0.41 0.41,0.41 0.22,0 0.4,-0.18 0.4,-0.41zm3.24 0c0,-0.22 -0.18,-0.4 -0.41,-0.4 -0.22,0 -0.4,0.18 -0.4,0.4 0,0.23 0.18,0.41 0.4,0.41 0.23,0 0.41,-0.18 0.41,-0.41zm-2.02 -3.64c2.45,0 4.44,2 4.44,4.45 0,2.46 -1.99,4.45 -4.44,4.45 -2.46,0 -4.45,-1.99 -4.45,-4.45 0,-2.45 1.99,-4.45 4.45,-4.45z"/>
    <path class="fil5" d="M17.1 7.07c0.23,0 0.41,0.18 0.41,0.4 0,0.23 -0.18,0.41 -0.41,0.41 -0.22,0 -0.4,-0.18 -0.4,-0.41 0,-0.22 0.18,-0.4 0.4,-0.4z"/>
    <path class="fil5" d="M13.87 7.07c0.22,0 0.4,0.18 0.4,0.4 0,0.23 -0.18,0.41 -0.4,0.41 -0.23,0 -0.41,-0.18 -0.41,-0.41 0,-0.22 0.18,-0.4 0.41,-0.4z"/>
    <path class="fil6" d="M15.49 12.53c-2.35,0 -4.25,-1.9 -4.25,-4.25 0,-2.34 1.9,-4.24 4.25,-4.24 2.34,0 4.24,1.9 4.24,4.24 0,2.35 -1.9,4.25 -4.24,4.25zm0 -8.9c-2.57,0 -4.66,2.09 -4.66,4.65 0,2.57 2.09,4.65 4.66,4.65 2.56,0 4.65,-2.08 4.65,-4.65 0,-2.56 -2.09,-4.65 -4.65,-4.65z"/>
    <path class="fil6" d="M13.67 7.47c0,-0.11 0.09,-0.2 0.2,-0.2 0.11,0 0.2,0.09 0.2,0.2 0,0.12 -0.09,0.21 -0.2,0.21 -0.11,0 -0.2,-0.09 -0.2,-0.21zm0.8 0c0,-0.33 -0.27,-0.6 -0.6,-0.6 -0.34,0 -0.61,0.27 -0.61,0.6 0,0.34 0.27,0.61 0.61,0.61 0.33,0 0.6,-0.27 0.6,-0.61z"/>
    <path class="fil6" d="M17.1 7.68c-0.11,0 -0.2,-0.09 -0.2,-0.21 0,-0.11 0.09,-0.2 0.2,-0.2 0.12,0 0.21,0.09 0.21,0.2 0,0.12 -0.09,0.21 -0.21,0.21zm0 -0.81c-0.33,0 -0.6,0.27 -0.6,0.6 0,0.34 0.27,0.61 0.6,0.61 0.34,0 0.61,-0.27 0.61,-0.61 0,-0.33 -0.27,-0.6 -0.61,-0.6z"/>
    <path class="fil6" d="M17.16 9.36c-0.43,0.47 -1.03,0.74 -1.67,0.74 -0.64,0 -1.25,-0.27 -1.67,-0.74 -0.08,-0.08 -0.21,-0.09 -0.29,-0.01 -0.08,0.07 -0.09,0.2 -0.01,0.28 0.5,0.56 1.21,0.88 1.97,0.88 0.75,0 1.47,-0.32 1.97,-0.88 0.07,-0.08 0.06,-0.21 -0.02,-0.28 -0.08,-0.08 -0.21,-0.07 -0.28,0.01z"/>
   </g>
  </g>
 </g>
</svg>
