<?xml version="1.0" encoding="UTF-8"?>
<!DOCTYPE svg PUBLIC "-//W3C//DTD SVG 1.1//EN" "http://www.w3.org/Graphics/SVG/1.1/DTD/svg11.dtd">
<!-- Creator: CorelDRAW 2018 (64-Bit) -->
<svg xmlns="http://www.w3.org/2000/svg" xml:space="preserve" width="1535px" height="827px" version="1.1" style="shape-rendering:geometricPrecision; text-rendering:geometricPrecision; image-rendering:optimizeQuality; fill-rule:evenodd; clip-rule:evenodd"
viewBox="0 0 1535 826.54"
 xmlns:xlink="http://www.w3.org/1999/xlink">
 <defs>
  <style type="text/css">
   <![CDATA[
    .fil6 {fill:#2BBE69;fill-rule:nonzero}
    .fil4 {fill:#9AE8BB;fill-rule:nonzero}
    .fil5 {fill:#9AE8BB;fill-rule:nonzero}
    .fil3 {fill:#E74C3C;fill-rule:nonzero}
    .fil1 {fill:#F29F97;fill-rule:nonzero}
    .fil2 {fill:#F29F97;fill-rule:nonzero}
    .fil0 {fill:white;fill-rule:nonzero}
   ]]>
  </style>
 </defs>
 <g id="Layer_x0020_1">
  <metadata id="CorelCorpID_0Corel-Layer"/>
  <path class="fil0" d="M76.66 343.98l20.16 -4.11 0 -107.02 -22.1 -15.66 0 -20.49 60.53 -17.89 12.06 3.11 0 24.05c3.33,-3.55 7.27,-6.94 11.77,-10.16 4.5,-3.22 9.33,-6.06 14.49,-8.56 5.17,-2.49 10.56,-4.49 16.17,-6.1 5.66,-1.56 11.27,-2.5 16.93,-2.84 5.84,-0.33 11.61,-0.16 17.27,0.5 5.61,0.67 10.83,1.95 15.67,3.89 4.83,1.95 9.16,4.72 13.05,8.22 3.83,3.55 6.94,7.94 9.33,13.27 3.38,-3.16 7.11,-6.22 11.22,-9.27 4.11,-3.06 8.66,-5.78 13.6,-8.16 4.94,-2.34 10.33,-4.28 16.16,-5.78 5.89,-1.45 12.28,-2.17 19.22,-2.17 10.72,0 19.94,1.72 27.65,5.22 7.72,3.45 14.06,8.5 18.94,15.11 4.95,6.61 8.61,14.72 10.94,24.32 2.34,9.61 3.5,20.61 3.5,32.94l0 83.13 22.77 4.45 0 22.1 -99.41 0 0 -22.1 19.05 -4.56 0 -75.69c0,-10.39 -0.67,-18.77 -1.89,-25.05 -1.27,-6.28 -3.22,-11.16 -5.94,-14.55 -2.72,-3.44 -6.22,-5.66 -10.5,-6.78 -4.27,-1.05 -9.38,-1.61 -15.38,-1.61 -3.78,0 -7.83,0.84 -12.22,2.5 -4.33,1.73 -8.11,3.61 -11.38,5.78 0.55,2.72 0.94,6.11 1.22,10.16 0.28,4.11 0.44,9.89 0.44,17.33l0 88.02 23.11 4.45 0 22.1 -103.8 0 0 -22.1 23.05 -4.72 0 -76.64c0,-10.44 -0.78,-18.83 -2.39,-25.16 -1.67,-6.33 -4,-11.22 -7.11,-14.55 -3.11,-3.39 -6.94,-5.44 -11.55,-6.28 -4.61,-0.83 -9.88,-1 -15.88,-0.55 -1.28,0.11 -2.95,0.39 -5,0.89 -2.06,0.5 -4.17,1.11 -6.22,1.88 -2.06,0.73 -4,1.56 -5.78,2.5 -1.77,0.95 -3.11,1.89 -3.94,2.84l0 115.23 21.27 4.56 0 22.1 -99.08 0 0 -22.1z"/>
  <path id="1" class="fil0" d="M471.91 150.49c-4.22,0 -8.38,-0.72 -12.44,-2.11 -4.11,-1.39 -7.66,-3.39 -10.77,-6 -3.06,-2.61 -5.55,-5.83 -7.44,-9.61 -1.95,-3.83 -2.89,-8.1 -2.89,-12.88 0,-5.17 1.22,-10 3.61,-14.44 2.39,-4.44 5.44,-8.33 9.27,-11.55 3.78,-3.28 8.06,-5.83 12.78,-7.66 4.72,-1.84 9.44,-2.78 14.21,-2.78 5.89,0 10.89,0.83 15.05,2.44 4.17,1.61 7.61,3.83 10.33,6.67 2.72,2.83 4.72,6.11 6,9.77 1.33,3.67 2,7.67 2,11.89 0,5.49 -1.11,10.49 -3.33,14.93 -2.22,4.45 -5.22,8.28 -9,11.5 -3.72,3.22 -8,5.61 -12.77,7.33 -4.78,1.67 -9.61,2.5 -14.61,2.5zm-45.59 193.49l21.99 -4.56 0 -101.24 -20.83 -23.43 0 -15.11 64.42 -20.83 13.83 4.06 0 156.83 23.44 4.28 0 22.1 -102.85 0 0 -22.1z"/>
  <path id="2" class="fil0" d="M551.27 312.54l26.83 0 10.27 17.72c1.28,1.44 2.89,3.11 4.72,5.05 1.83,1.95 4,3.84 6.5,5.61 2.5,1.83 5.33,3.39 8.55,4.72 3.22,1.39 6.83,2.17 10.83,2.39 9.77,0.56 17.16,-1.11 22.21,-4.89 5.06,-3.77 7.5,-8.94 7.39,-15.44 -0.11,-2.94 -1.33,-5.72 -3.66,-8.38 -2.34,-2.67 -5.45,-5.28 -9.33,-7.83 -3.95,-2.56 -8.39,-5.06 -13.44,-7.5 -5.06,-2.44 -10.33,-4.89 -15.89,-7.39 -7.66,-3.55 -15.05,-7.38 -22.1,-11.49 -7.05,-4.06 -13.22,-8.66 -18.55,-13.88 -5.33,-5.23 -9.55,-11.11 -12.72,-17.67 -3.11,-6.55 -4.66,-14.05 -4.55,-22.54 0.11,-6.5 1.39,-12.28 3.83,-17.33 2.44,-5.05 5.72,-9.44 9.78,-13.22 4.05,-3.83 8.71,-7.05 13.99,-9.77 5.28,-2.72 10.77,-4.94 16.49,-6.61 5.78,-1.67 11.56,-2.94 17.33,-3.83 5.83,-0.84 11.33,-1.34 16.55,-1.45 6.17,-0.11 12.39,0.06 18.72,0.56 6.27,0.5 12.27,1.22 17.93,2.11 5.73,0.94 11,1.94 15.78,3.11 4.83,1.11 8.94,2.33 12.33,3.66l0 44.43 -28.66 0 -9.11 -20.21c-2.83,-3.33 -6.33,-6.33 -10.49,-8.94 -4.17,-2.61 -8.72,-3.89 -13.61,-3.89 -3,0 -6,0.28 -8.83,0.83 -2.89,0.5 -5.44,1.39 -7.66,2.67 -2.23,1.22 -4,2.83 -5.39,4.72 -1.33,1.89 -2,4.16 -2,6.72 0,3.61 0.72,6.89 2.17,9.94 1.49,3.05 3.49,5.89 6.1,8.55 2.61,2.67 5.72,5.11 9.39,7.39 3.61,2.28 7.61,4.39 11.94,6.38 5.22,2.34 10.5,4.73 15.88,7.11 5.33,2.39 10.55,4.95 15.66,7.67 5.11,2.72 9.94,5.66 14.44,8.77 4.5,3.17 8.39,6.72 11.78,10.78 3.38,3.99 5.99,8.49 7.99,13.38 1.95,4.94 2.89,10.55 2.89,16.88 0,10.72 -2.33,19.83 -7,27.21 -4.66,7.45 -10.94,13.5 -18.88,18.16 -7.88,4.67 -17.1,8 -27.66,10.11 -10.49,2.06 -21.6,3.06 -33.32,3.06 -5.22,0 -10.71,-0.28 -16.55,-0.78 -5.77,-0.56 -11.6,-1.44 -17.38,-2.61 -5.83,-1.22 -11.44,-2.72 -16.83,-4.55 -5.44,-1.84 -10.33,-4.11 -14.66,-6.67l0 -42.82z"/>
  <path id="3" class="fil0" d="M729.43 312.54l26.82 0 10.28 17.72c1.28,1.44 2.89,3.11 4.72,5.05 1.83,1.95 4,3.84 6.5,5.61 2.5,1.83 5.33,3.39 8.55,4.72 3.22,1.39 6.83,2.17 10.83,2.39 9.77,0.56 17.16,-1.11 22.21,-4.89 5.06,-3.77 7.5,-8.94 7.39,-15.44 -0.11,-2.94 -1.33,-5.72 -3.67,-8.38 -2.33,-2.67 -5.44,-5.28 -9.33,-7.83 -3.94,-2.56 -8.38,-5.06 -13.44,-7.5 -5.05,-2.44 -10.33,-4.89 -15.88,-7.39 -7.66,-3.55 -15.05,-7.38 -22.1,-11.49 -7.06,-4.06 -13.22,-8.66 -18.55,-13.88 -5.33,-5.23 -9.55,-11.11 -12.72,-17.67 -3.11,-6.55 -4.66,-14.05 -4.55,-22.54 0.11,-6.5 1.39,-12.28 3.83,-17.33 2.44,-5.05 5.72,-9.44 9.77,-13.22 4.06,-3.83 8.72,-7.05 14,-9.77 5.27,-2.72 10.77,-4.94 16.49,-6.61 5.78,-1.67 11.55,-2.94 17.33,-3.83 5.83,-0.84 11.33,-1.34 16.55,-1.45 6.16,-0.11 12.38,0.06 18.71,0.56 6.28,0.5 12.28,1.22 17.94,2.11 5.72,0.94 11,1.94 15.78,3.11 4.83,1.11 8.94,2.33 12.32,3.66l0 44.43 -28.65 0 -9.11 -20.21c-2.83,-3.33 -6.33,-6.33 -10.5,-8.94 -4.16,-2.61 -8.72,-3.89 -13.6,-3.89 -3,0 -6,0.28 -8.83,0.83 -2.89,0.5 -5.45,1.39 -7.67,2.67 -2.22,1.22 -4,2.83 -5.38,4.72 -1.34,1.89 -2,4.16 -2,6.72 0,3.61 0.72,6.89 2.16,9.94 1.5,3.05 3.5,5.89 6.11,8.55 2.61,2.67 5.72,5.11 9.39,7.39 3.61,2.28 7.61,4.39 11.94,6.38 5.22,2.34 10.49,4.73 15.88,7.11 5.33,2.39 10.55,4.95 15.66,7.67 5.11,2.72 9.94,5.66 14.44,8.77 4.5,3.17 8.39,6.72 11.77,10.78 3.39,3.99 6,8.49 8,13.38 1.95,4.94 2.89,10.55 2.89,16.88 0,10.72 -2.33,19.83 -7,27.21 -4.66,7.45 -10.94,13.5 -18.88,18.16 -7.89,4.67 -17.1,8 -27.66,10.11 -10.49,2.06 -21.6,3.06 -33.32,3.06 -5.22,0 -10.72,-0.28 -16.55,-0.78 -5.77,-0.56 -11.61,-1.44 -17.38,-2.61 -5.83,-1.22 -11.44,-2.72 -16.83,-4.55 -5.44,-1.84 -10.33,-4.11 -14.66,-6.67l0 -42.82z"/>
  <path id="4" class="fil0" d="M949.91 150.49c-4.22,0 -8.39,-0.72 -12.44,-2.11 -4.11,-1.39 -7.67,-3.39 -10.78,-6 -3.05,-2.61 -5.55,-5.83 -7.44,-9.61 -1.94,-3.83 -2.89,-8.1 -2.89,-12.88 0,-5.17 1.23,-10 3.61,-14.44 2.39,-4.44 5.44,-8.33 9.28,-11.55 3.77,-3.28 8.05,-5.83 12.77,-7.66 4.72,-1.84 9.44,-2.78 14.22,-2.78 5.89,0 10.88,0.83 15.05,2.44 4.16,1.61 7.61,3.83 10.33,6.67 2.72,2.83 4.72,6.11 6,9.77 1.33,3.67 1.99,7.67 1.99,11.89 0,5.49 -1.11,10.49 -3.33,14.93 -2.22,4.45 -5.22,8.28 -8.99,11.5 -3.72,3.22 -8,5.61 -12.78,7.33 -4.77,1.67 -9.61,2.5 -14.6,2.5zm-45.6 193.49l21.99 -4.56 0 -101.24 -20.82 -23.43 0 -15.11 64.42 -20.83 13.83 4.06 0 156.83 23.43 4.28 0 22.1 -102.85 0 0 -22.1z"/>
  <path id="5" class="fil0" d="M1028.93 343.98l20.33 -4.11 0 -107.02 -22.1 -15.66 0 -20.49 60.36 -17.89 12.22 3.11 0 24.05c4.22,-4.11 9,-7.83 14.27,-11.22 5.34,-3.39 10.94,-6.22 16.89,-8.55 5.88,-2.33 11.99,-4.17 18.27,-5.44 6.33,-1.28 12.55,-1.95 18.71,-1.95 10.45,0 19.05,1.67 25.88,4.95 6.83,3.33 12.28,8.1 16.33,14.44 4.11,6.27 6.94,13.93 8.66,22.99 1.67,9.05 2.5,19.38 2.5,30.99l0 87.52 22.94 4.28 0 22.1 -103.8 0 0 -22.1 23.27 -4.56 0 -79.91c0,-8.67 -0.39,-15.83 -1.22,-21.38 -0.83,-5.61 -2.33,-10 -4.61,-13.22 -2.33,-3.17 -5.55,-5.39 -9.72,-6.67 -4.16,-1.22 -9.66,-1.83 -16.49,-1.83 -1,0 -2.61,0.17 -4.83,0.56 -2.22,0.38 -4.56,0.89 -7.06,1.55 -2.49,0.67 -4.94,1.45 -7.33,2.33 -2.38,0.95 -4.22,1.95 -5.49,3l0 115.68 19.99 4.45 0 22.1 -97.97 0 0 -22.1z"/>
  <path id="6" class="fil0" d="M1290.4 360.36c-4.22,-1.61 -7.5,-3.5 -9.89,-5.67 -2.39,-2.16 -4.22,-4.6 -5.5,-7.21 -1.22,-2.67 -2,-5.5 -2.33,-8.5 -0.33,-3 -0.5,-6.11 -0.5,-9.33 0,-2.61 0.61,-5.5 1.89,-8.72 1.22,-3.22 2.89,-6.44 4.94,-9.77 2.06,-3.28 4.44,-6.5 7.11,-9.61 2.61,-3.06 5.39,-5.83 8.22,-8.22 -10,-4.78 -17.77,-11.28 -23.27,-19.5 -5.55,-8.27 -8.33,-18.32 -8.33,-30.26 0,-11.39 2.55,-21.16 7.66,-29.27 5.11,-8.16 11.78,-14.83 20,-20.05 8.27,-5.22 17.6,-8.99 27.99,-11.44 10.44,-2.44 20.99,-3.77 31.71,-4 12.38,-0.22 23.6,0.89 33.71,3.34 10.1,2.44 18.71,6.44 25.88,11.94 1.05,-2.17 2.5,-4.17 4.27,-6 1.84,-1.83 4.17,-3.44 7,-4.83 2.89,-1.34 6.39,-2.39 10.5,-3.17 4.16,-0.72 8.94,-1.11 14.49,-1.11l14.33 0 0 39.04 -33.71 0c2,6.05 2.94,12.77 2.94,20.16 0,11.05 -2.05,20.66 -6.27,28.82 -4.17,8.11 -9.94,14.89 -17.39,20.27 -7.44,5.34 -16.27,9.33 -26.54,11.95 -10.22,2.6 -21.44,3.88 -33.6,3.88 -10.5,0 -20.05,-0.77 -28.6,-2.44 -1.72,4.11 -2.61,8.11 -2.61,11.88 0,6.61 2,11.33 6,14.16 4.05,2.84 9.77,4.23 17.27,4.23l38.04 0c14.44,0 26.66,0.99 36.65,2.94 9.94,1.94 18.05,5.05 24.33,9.33 6.22,4.33 10.72,9.83 13.49,16.55 2.78,6.72 4.11,14.83 4.11,24.38 0,9.33 -2.27,18.16 -6.88,26.43 -4.61,8.33 -11.44,15.55 -20.5,21.72 -9.05,6.22 -20.32,11.11 -33.87,14.77 -13.5,3.61 -29.1,5.44 -46.76,5.44 -12.67,0 -24.16,-0.94 -34.44,-2.77 -10.22,-1.84 -18.99,-4.72 -26.26,-8.61 -7.28,-3.94 -12.89,-8.94 -16.83,-15 -3.95,-6.05 -5.94,-13.32 -5.94,-21.77 0,-5.55 0.83,-10.6 2.55,-15.16 1.67,-4.55 3.83,-8.66 6.5,-12.27 2.66,-3.67 5.61,-6.83 8.83,-9.61 3.28,-2.78 6.5,-5.05 9.61,-6.94zm59.25 -83.3c5.06,0 9.33,-1.06 12.78,-3.23 3.38,-2.16 6.16,-4.99 8.27,-8.49 2.11,-3.45 3.61,-7.39 4.5,-11.78 0.83,-4.38 1.28,-8.88 1.28,-13.44 0,-12.32 -2.5,-21.88 -7.56,-28.54 -5.05,-6.66 -12.44,-10 -22.21,-10 -3.28,0 -6.55,0.5 -9.83,1.56 -3.33,1 -6.33,2.72 -8.94,5.05 -2.67,2.33 -4.83,5.33 -6.44,9.11 -1.61,3.72 -2.45,8.33 -2.45,13.72 0,6.22 0.45,12.1 1.28,17.66 0.89,5.61 2.44,10.49 4.72,14.71 2.28,4.28 5.39,7.61 9.39,10.06 3.94,2.38 8.99,3.61 15.21,3.61zm-38.1 111.46c0,6.38 1.17,11.99 3.45,16.71 2.28,4.72 5.44,8.67 9.49,11.83 4.06,3.22 8.89,5.61 14.5,7.17 5.55,1.61 11.66,2.38 18.27,2.38 7.16,0 13.55,-0.39 19.05,-1.22 5.55,-0.83 10.16,-2.33 13.94,-4.5 3.72,-2.16 6.55,-5.16 8.5,-8.99 2,-3.89 2.94,-8.83 2.94,-14.89 0,-3.38 -0.17,-6.88 -0.5,-10.6 -0.28,-3.67 -1.61,-7 -3.89,-10 -2.28,-3 -5.89,-5.44 -10.88,-7.39 -5,-1.94 -12.11,-2.94 -21.33,-2.94l-28.82 0c-3.78,0 -7.28,-0.06 -10.55,-0.17 -3.28,-0.11 -6.33,-0.27 -9.28,-0.5 -1.39,2.61 -2.55,5.78 -3.5,9.44 -0.94,3.73 -1.39,8.28 -1.39,13.67z"/>
  <g id="_2784858722448">
   <path class="fil0" d="M96.83 715.92l0 -189.21 -22.11 -15.66 0 -20.49 60.37 -17.88 11.38 2.94 0 20.99c0.56,-1.22 2.17,-3.16 4.78,-5.77 2.67,-2.67 6.22,-5.33 10.66,-8 4.45,-2.66 9.83,-5 16.11,-7.05 6.33,-2.11 13.38,-3.11 21.16,-3.11 9.77,0 19.1,1.5 27.99,4.55 8.88,3.06 16.71,8.05 23.49,15.11 6.83,7.05 12.22,16.38 16.27,27.93 4.11,11.55 6.11,25.83 6.11,42.88 0,13.55 -2.55,26.43 -7.72,38.65 -5.16,12.16 -12.27,22.88 -21.38,32.1 -9.11,9.22 -19.88,16.55 -32.32,21.88 -12.39,5.39 -25.88,8.05 -40.43,8.05 -3.78,0 -7.5,-0.28 -11.22,-0.78 -3.67,-0.55 -6.33,-0.94 -7.94,-1.16l2.11 26.88 0 27.15 34.65 4.72 0 22.44 -113.4 0 0 -22.44 21.44 -4.72zm57.14 -91.91c0.83,1.83 2.28,3.44 4.22,4.83 1.95,1.45 4.22,2.61 6.78,3.61 2.5,0.95 5.27,1.72 8.16,2.17 2.95,0.5 5.78,0.78 8.5,0.78 3.33,0 7.05,-0.95 11.11,-2.78 4.1,-1.83 7.88,-5.11 11.33,-9.83 3.49,-4.72 6.38,-11.22 8.71,-19.38 2.34,-8.22 3.5,-18.61 3.5,-31.16 0,-14.33 -1.39,-25.99 -4.05,-35.04 -2.72,-9.11 -6.11,-16.22 -10.22,-21.33 -4.05,-5.16 -8.44,-8.66 -13.16,-10.6 -4.72,-1.89 -9.05,-2.84 -13.11,-2.84 -2.66,0 -5.22,0.39 -7.55,1.23 -2.33,0.83 -4.44,1.83 -6.33,3 -1.89,1.22 -3.5,2.44 -4.83,3.66 -1.28,1.28 -2.34,2.33 -3.06,3.17l0 110.51z"/>
   <path id="1" class="fil0" d="M771.97 715.92l0 -189.21 -22.1 -15.66 0 -20.49 60.37 -17.88 11.38 2.94 0 20.99c0.56,-1.22 2.17,-3.16 4.78,-5.77 2.66,-2.67 6.22,-5.33 10.66,-8 4.44,-2.66 9.83,-5 16.11,-7.05 6.33,-2.11 13.38,-3.11 21.16,-3.11 9.77,0 19.1,1.5 27.99,4.55 8.88,3.06 16.71,8.05 23.49,15.11 6.83,7.05 12.21,16.38 16.27,27.93 4.11,11.55 6.11,25.83 6.11,42.88 0,13.55 -2.56,26.43 -7.72,38.65 -5.17,12.16 -12.28,22.88 -21.38,32.1 -9.11,9.22 -19.88,16.55 -32.33,21.88 -12.38,5.39 -25.87,8.05 -40.42,8.05 -3.78,0 -7.5,-0.28 -11.22,-0.78 -3.67,-0.55 -6.33,-0.94 -7.95,-1.16l2.12 26.88 0 27.15 34.65 4.72 0 22.44 -113.4 0 0 -22.44 21.43 -4.72zm57.15 -91.91c0.83,1.83 2.28,3.44 4.22,4.83 1.94,1.45 4.22,2.61 6.77,3.61 2.5,0.95 5.28,1.72 8.17,2.17 2.94,0.5 5.77,0.78 8.5,0.78 3.33,0 7.05,-0.95 11.1,-2.78 4.11,-1.83 7.89,-5.11 11.33,-9.83 3.5,-4.72 6.39,-11.22 8.72,-19.38 2.33,-8.22 3.5,-18.61 3.5,-31.16 0,-14.33 -1.39,-25.99 -4.05,-35.04 -2.73,-9.11 -6.11,-16.22 -10.22,-21.33 -4.06,-5.16 -8.44,-8.66 -13.17,-10.6 -4.71,-1.89 -9.05,-2.84 -13.1,-2.84 -2.67,0 -5.22,0.39 -7.55,1.23 -2.34,0.83 -4.45,1.83 -6.34,3 -1.88,1.22 -3.49,2.44 -4.83,3.66 -1.27,1.28 -2.33,2.33 -3.05,3.17l0 110.51z"/>
   <polygon id="2" class="fil0" points="971.46,637.84 990.67,633.73 990.67,434.75 968.68,425.47 968.68,402.7 1038.82,394.76 1048.26,397.65 1048.26,632.95 1076.75,637.84 1076.75,659.94 971.46,659.94 "/>
   <path id="3" class="fil0" d="M1091.52 573.53c0,-13.88 2.28,-26.93 6.84,-39.21 4.55,-12.22 11.1,-22.93 19.65,-32.04 8.61,-9.11 19.05,-16.33 31.44,-21.66 12.38,-5.28 26.32,-7.94 41.98,-7.94 13.11,0 24.38,1.66 33.82,5.05 9.45,3.33 17.22,8.05 23.27,14.05 6.06,6.05 10.61,13.22 13.67,21.55 3.05,8.39 4.72,17.49 5.05,27.38 0.22,6.83 0.05,12.88 -0.5,18.21 -0.56,5.28 -1.11,10.22 -1.78,14.78l-113.4 0c1.5,19.21 6.5,33.71 14.88,43.48 8.39,9.72 20.66,14.61 36.71,14.61 7.89,0 16.33,-0.84 25.27,-2.5 8.94,-1.72 17.83,-4.5 26.6,-8.39l8.67 20.33c-4.17,3.5 -9.17,6.66 -15.11,9.61 -5.89,2.94 -12.33,5.44 -19.27,7.49 -6.94,2.06 -14.27,3.67 -22.05,4.78 -7.72,1.17 -15.55,1.61 -23.49,1.39 -14.77,-0.34 -27.82,-2.56 -39.32,-6.67 -11.44,-4.11 -21.05,-10.05 -28.93,-17.82 -7.89,-7.78 -13.83,-17.22 -17.89,-28.33 -4.11,-11.1 -6.11,-23.82 -6.11,-38.15zm119.74 -25.99c0.33,-4.05 0.67,-8.33 1,-12.94 0.33,-4.61 0.28,-9.11 -0.11,-13.55 -0.39,-4.39 -1.33,-8.44 -2.83,-12.27 -1.5,-3.78 -3.89,-6.83 -7.17,-9.11 -1.94,-1.39 -4.22,-2.45 -6.83,-3.17 -2.61,-0.72 -5.66,-1.05 -9.11,-1.05 -6.27,0 -11.55,1.55 -15.77,4.66 -4.22,3.06 -7.66,7.06 -10.33,12 -2.66,4.94 -4.61,10.49 -5.89,16.71 -1.22,6.17 -2.05,12.39 -2.5,18.72l59.54 0z"/>
   <g>
    <g>
     <path class="fil1" d="M372.03 564.4c0,-5.03 -4.12,-9.15 -9.15,-9.15 -5.04,0 -9.16,4.12 -9.16,9.15 0,5.04 4.12,9.16 9.16,9.16 5.03,0 9.15,-4.12 9.15,-9.16zm73.27 0c0,-5.03 -4.12,-9.15 -9.16,-9.15 -5.04,0 -9.16,4.12 -9.16,9.15 0,5.04 4.12,9.16 9.16,9.16 5.04,0 9.16,-4.12 9.16,-9.16zm-45.79 -82.42c55.64,0 100.74,45.1 100.74,100.74 0,55.64 -45.1,100.74 -100.74,100.74 -55.64,0 -100.74,-45.1 -100.74,-100.74 0,-55.64 45.1,-100.74 100.74,-100.74z"/>
     <path class="fil2" d="M436.14 555.25c5.06,0 9.16,4.1 9.16,9.15 0,5.06 -4.1,9.16 -9.16,9.16 -5.06,0 -9.16,-4.1 -9.16,-9.16 0,-5.05 4.1,-9.15 9.16,-9.15z"/>
     <path class="fil2" d="M362.88 555.25c5.05,0 9.15,4.1 9.15,9.15 0,5.06 -4.1,9.16 -9.15,9.16 -5.06,0 -9.16,-4.1 -9.16,-9.16 0,-5.05 4.1,-9.15 9.16,-9.15z"/>
     <path class="fil3" d="M399.51 678.88c-53.03,0 -96.16,-43.13 -96.16,-96.16 0,-53.02 43.13,-96.16 96.16,-96.16 53.02,0 96.16,43.14 96.16,96.16 0,53.03 -43.14,96.16 -96.16,96.16zm0 -201.48c-58.07,0 -105.32,47.25 -105.32,105.32 0,58.07 47.25,105.32 105.32,105.32 58.08,0 105.32,-47.25 105.32,-105.32 0,-58.07 -47.24,-105.32 -105.32,-105.32z"/>
     <path class="fil3" d="M358.3 564.4c0,-2.52 2.05,-4.57 4.58,-4.57 2.52,0 4.58,2.05 4.58,4.57 0,2.53 -2.06,4.58 -4.58,4.58 -2.53,0 -4.58,-2.05 -4.58,-4.58zm18.31 0c0,-7.57 -6.16,-13.73 -13.73,-13.73 -7.58,0 -13.74,6.16 -13.74,13.73 0,7.58 6.16,13.74 13.74,13.74 7.57,0 13.73,-6.16 13.73,-13.74z"/>
     <path class="fil3" d="M436.14 568.98c-2.52,0 -4.58,-2.05 -4.58,-4.58 0,-2.52 2.06,-4.57 4.58,-4.57 2.53,0 4.58,2.05 4.58,4.57 0,2.53 -2.05,4.58 -4.58,4.58zm0 -18.31c-7.57,0 -13.74,6.16 -13.74,13.73 0,7.58 6.17,13.74 13.74,13.74 7.58,0 13.74,-6.16 13.74,-13.74 0,-7.57 -6.16,-13.73 -13.74,-13.73z"/>
     <path class="fil3" d="M399.51 605.62c-17.04,0 -33.3,7.23 -44.62,19.83 -1.69,1.89 -1.53,4.78 0.35,6.47 1.88,1.69 4.78,1.53 6.46,-0.35 9.59,-10.67 23.37,-16.8 37.81,-16.8 14.48,0 28.26,6.12 37.8,16.8 0.9,1.01 2.16,1.52 3.41,1.52 1.09,0 2.18,-0.38 3.06,-1.16 1.88,-1.69 2.04,-4.58 0.35,-6.47 -11.28,-12.61 -27.54,-19.84 -44.62,-19.84z"/>
    </g>
    <g>
     <path class="fil4" d="M597.83 509.31c0,-5.04 -4.12,-9.16 -9.16,-9.16 -5.04,0 -9.16,4.12 -9.16,9.16 0,5.03 4.12,9.15 9.16,9.15 5.04,0 9.16,-4.12 9.16,-9.15zm73.26 0c0,-5.04 -4.12,-9.16 -9.15,-9.16 -5.04,0 -9.16,4.12 -9.16,9.16 0,5.03 4.12,9.15 9.16,9.15 5.03,0 9.15,-4.12 9.15,-9.15zm-45.79 -82.43c55.64,0 100.74,45.11 100.74,100.74 0,55.64 -45.1,100.74 -100.74,100.74 -55.63,0 -100.74,-45.1 -100.74,-100.74 0,-55.63 45.11,-100.74 100.74,-100.74z"/>
     <path class="fil5" d="M661.94 500.15c5.06,0 9.15,4.1 9.15,9.16 0,5.05 -4.09,9.15 -9.15,9.15 -5.06,0 -9.16,-4.1 -9.16,-9.15 0,-5.06 4.1,-9.16 9.16,-9.16z"/>
     <path class="fil5" d="M588.67 500.15c5.06,0 9.16,4.1 9.16,9.16 0,5.05 -4.1,9.15 -9.16,9.15 -5.06,0 -9.16,-4.1 -9.16,-9.15 0,-5.06 4.1,-9.16 9.16,-9.16z"/>
     <path class="fil6" d="M625.3 623.78c-53.02,0 -96.16,-43.13 -96.16,-96.16 0,-53.02 43.14,-96.16 96.16,-96.16 53.03,0 96.17,43.14 96.17,96.16 0,53.03 -43.14,96.16 -96.17,96.16zm0 -201.48c-58.07,0 -105.32,47.25 -105.32,105.32 0,58.07 47.25,105.32 105.32,105.32 58.08,0 105.32,-47.25 105.32,-105.32 0,-58.07 -47.24,-105.32 -105.32,-105.32z"/>
     <path class="fil6" d="M584.09 509.31c0,-2.53 2.06,-4.58 4.58,-4.58 2.52,0 4.58,2.05 4.58,4.58 0,2.52 -2.06,4.57 -4.58,4.57 -2.52,0 -4.58,-2.05 -4.58,-4.57zm18.32 0c0,-7.58 -6.17,-13.74 -13.74,-13.74 -7.57,0 -13.74,6.16 -13.74,13.74 0,7.57 6.17,13.73 13.74,13.73 7.57,0 13.74,-6.16 13.74,-13.73z"/>
     <path class="fil6" d="M661.94 513.88c-2.53,0 -4.58,-2.05 -4.58,-4.57 0,-2.53 2.05,-4.58 4.58,-4.58 2.52,0 4.58,2.05 4.58,4.58 0,2.52 -2.06,4.57 -4.58,4.57zm0 -18.31c-7.58,0 -13.74,6.16 -13.74,13.74 0,7.57 6.16,13.73 13.74,13.73 7.57,0 13.73,-6.16 13.73,-13.73 0,-7.58 -6.16,-13.74 -13.73,-13.74z"/>
     <path class="fil6" d="M663.1 552.04c-9.54,10.68 -23.32,16.79 -37.8,16.79 -14.43,0 -28.22,-6.12 -37.8,-16.79 -1.69,-1.89 -4.58,-2.04 -6.47,-0.35 -1.88,1.69 -2.04,4.58 -0.35,6.47 11.32,12.6 27.59,19.83 44.62,19.83 17.08,0 33.35,-7.23 44.63,-19.84 1.69,-1.88 1.53,-4.78 -0.36,-6.47 -1.89,-1.68 -4.79,-1.52 -6.47,0.36z"/>
    </g>
   </g>
  </g>
 </g>
</svg>
