<?xml version="1.0" encoding="UTF-8"?>
<!DOCTYPE svg PUBLIC "-//W3C//DTD SVG 1.1//EN" "http://www.w3.org/Graphics/SVG/1.1/DTD/svg11.dtd">
<!-- Creator: CorelDRAW 2018 (64-Bit) -->
<svg xmlns="http://www.w3.org/2000/svg" xml:space="preserve" width="4961px" height="2953px" version="1.1" style="shape-rendering:geometricPrecision; text-rendering:geometricPrecision; image-rendering:optimizeQuality; fill-rule:evenodd; clip-rule:evenodd"
viewBox="0 0 4961 2952.98"
 xmlns:xlink="http://www.w3.org/1999/xlink">
 <defs>
  <style type="text/css">
   <![CDATA[
    .fil21 {fill:#060632;fill-rule:nonzero}
    .fil29 {fill:#0B0754;fill-rule:nonzero}
    .fil7 {fill:#0D0D38;fill-rule:nonzero}
    .fil5 {fill:#12123C;fill-rule:nonzero}
    .fil24 {fill:#15115B;fill-rule:nonzero}
    .fil17 {fill:#15152A;fill-rule:nonzero}
    .fil6 {fill:#1A165E;fill-rule:nonzero}
    .fil30 {fill:#211D63;fill-rule:nonzero}
    .fil15 {fill:#262267;fill-rule:nonzero}
    .fil1 {fill:#3662C1;fill-rule:nonzero}
    .fil2 {fill:#3A49CD;fill-rule:nonzero}
    .fil33 {fill:#567BCB;fill-rule:nonzero}
    .fil11 {fill:#6D89CF;fill-rule:nonzero}
    .fil4 {fill:#93B3F4;fill-rule:nonzero}
    .fil18 {fill:#96B5F5;fill-rule:nonzero}
    .fil10 {fill:#98B7F5;fill-rule:nonzero}
    .fil31 {fill:#9E332E;fill-rule:nonzero}
    .fil22 {fill:#A13934;fill-rule:nonzero}
    .fil28 {fill:#A83F3F;fill-rule:nonzero}
    .fil14 {fill:#AC4949;fill-rule:nonzero}
    .fil32 {fill:#B25656;fill-rule:nonzero}
    .fil3 {fill:#BED2FA;fill-rule:nonzero}
    .fil0 {fill:#DDE8FD;fill-rule:nonzero}
    .fil13 {fill:#E1EBFD;fill-rule:nonzero}
    .fil25 {fill:#E75755;fill-rule:nonzero}
    .fil27 {fill:#EA8888;fill-rule:nonzero}
    .fil9 {fill:#EA8989;fill-rule:nonzero}
    .fil23 {fill:#EC9090;fill-rule:nonzero}
    .fil20 {fill:#ED6966;fill-rule:nonzero}
    .fil26 {fill:#EE9C9C;fill-rule:nonzero}
    .fil19 {fill:#F0807D;fill-rule:nonzero}
    .fil34 {fill:#FA7269;fill-rule:nonzero}
    .fil8 {fill:#FC9290;fill-rule:nonzero}
    .fil16 {fill:#FDADAC;fill-rule:nonzero}
    .fil12 {fill:white;fill-rule:nonzero}
   ]]>
  </style>
 </defs>
 <g id="Layer_x0020_1">
  <metadata id="CorelCorpID_0Corel-Layer"/>
  <g id="_1505940879584">
   <path class="fil0" d="M393.42 2723.44c0,0 -554.37,-595.21 -93.75,-1239.6 408.67,-571.76 885.18,-532.67 1234.75,-300.66 148.89,98.83 578.18,12.18 943.56,-569.59 498.26,-793.4 2225.46,-312.2 1910.56,908.44 -152.45,590.73 463.8,612.19 149.79,1202.68l-4144.91 -1.27z"/>
   <path class="fil1" d="M3211.53 2442.05c0,0 44.72,-52.17 2.78,-85.33 0,0 -30.7,-18.56 -55.65,-17.05 0,0 35.41,59.39 23.95,65.32 -11.5,5.89 -34.72,-69.05 -34.72,-69.05 0,0 -69.77,-6.77 -92.21,4.02 0,0 59.62,48.81 47.07,51.72 -12.55,2.9 -76.98,-45.01 -76.98,-45.01 0,0 -64.91,11.06 -61.46,50.67 3.45,39.63 25.84,51.86 35.67,50.8 9.83,-1.05 67.36,-23.02 68.62,-14.96 1.25,8.06 -33.37,34.4 -57.64,35.63 0,0 45.77,50.49 76.21,35.91 30.43,-14.57 33.05,-37.66 51.98,-46.32 18.99,-8.68 35.15,-8.65 27.35,0.19 -7.84,8.83 -42.15,17.41 -53.03,36.61 -10.82,19.19 -20.55,32.11 10.93,27.39 31.49,-4.75 82.64,-27.77 84.89,-54.16 2.24,-26.38 2.24,-26.38 2.24,-26.38z"/>
   <path class="fil1" d="M2996.22 2398.41c0,0 176.35,-6.78 215.31,43.64 0,0 8.63,25.8 35.15,49.3l4.08 11.26c0,0 -30.54,-32.22 -41.47,-34.18 0,0 17.1,-62.49 -213.07,-70.02z"/>
   <path class="fil1" d="M3246.68 2491.35c0,0 37.81,28 40.48,78.01l-6.9 0.63c0,0 -12.09,-51.72 -33.95,-71.96 -21.81,-20.23 0.37,-6.68 0.37,-6.68z"/>
   <path class="fil2" d="M3367.91 2376.43c0,0 -71.13,-39.85 -37.92,-93.94 0,0 26.57,-33.2 55.02,-41.74 0,0 -15.16,80.65 0,82.55 15.17,1.89 10.46,-91.09 10.46,-91.09 0,0 74.95,-36.06 104.34,-33.21 0,0 -46.49,78.77 -31.27,76.85 15.16,-1.9 67.36,-81.59 67.36,-81.59 0,0 76.83,-14.22 89.17,31.31 12.34,45.56 -7.58,68.31 -18.99,71.16 -11.4,2.86 -84.46,1.9 -82.53,11.39 1.89,9.5 51.21,24.67 78.72,16.14 0,0 -30.34,74.95 -70.19,71.14 -39.85,-3.8 -52.19,-28.47 -76.83,-30.36 -24.68,-1.89 -42.73,4.75 -30.38,11.39 12.34,6.64 54.07,2.18 74,19.11 19.93,16.95 36.03,27.38 -0.94,34.98 -37.03,7.58 -103.45,2.83 -116.73,-25.63 -13.29,-28.46 -13.29,-28.46 -13.29,-28.46z"/>
   <path class="fil2" d="M3589.92 2239.81c0,0 -199.21,64.52 -222.01,136.62 0,0 1,32.25 -18.93,69.27l0 14.21c0,0 20.87,-48.38 32.22,-55.02 0,0 -44.56,-62.63 208.72,-165.08z"/>
   <path class="fil2" d="M3348.98 2445.7c0,0 -30.75,46.65 -13.23,103.45l7.89 -2.13c0,0 -7.63,-62.55 8.42,-94.01 16.06,-31.48 -3.08,-7.31 -3.08,-7.31z"/>
   <path class="fil3" d="M3254.73 2321.48c0,0 93.78,-52.54 50,-123.82 0,0 -34.99,-43.78 -72.48,-55.03 0,0 19.97,106.29 0,108.81 -20.04,2.49 -13.81,-120.08 -13.81,-120.08 0,0 -98.8,-47.51 -137.55,-43.78 0,0 61.29,103.82 41.26,101.33 -19.97,-2.52 -88.8,-107.55 -88.8,-107.55 0,0 -101.31,-18.78 -117.52,41.25 -16.3,60.05 9.99,90.06 25,93.8 15.01,3.77 111.29,2.52 108.78,15.01 -2.51,12.51 -67.52,32.51 -103.76,21.27 0,0 40.01,98.8 92.52,93.79 52.51,-5.01 68.77,-37.52 101.3,-40.02 32.54,-2.49 56.28,6.26 40.01,15.02 -16.26,8.75 -71.28,2.87 -97.54,25.19 -26.25,22.32 -47.54,36.09 1.26,46.08 48.8,10 136.29,3.77 153.81,-33.75 17.52,-37.52 17.52,-37.52 17.52,-37.52z"/>
   <path class="fil2" d="M2962.06 2141.36c0,0 262.65,85.08 292.67,180.12 0,0 -1.25,42.5 25,91.3l0 18.74c0,0 -27.51,-63.77 -42.52,-72.52 0,0 58.79,-82.55 -275.15,-217.64z"/>
   <path class="fil2" d="M3279.73 2412.78c0,0 40.54,61.49 17.42,136.37l-10.41 -2.8c0,0 10.09,-82.46 -11.09,-123.94 -21.18,-41.47 4.08,-9.63 4.08,-9.63z"/>
   <path class="fil4" d="M3259.75 2711.49c101.47,0 183.73,-82.23 183.73,-183.72l-367.45 0c0,101.49 82.26,183.72 183.72,183.72z"/>
   <path class="fil3" d="M3304.94 2710.1c-7.48,0.94 -15.06,1.39 -22.8,1.39 -101.46,0 -183.73,-82.26 -183.73,-183.72l45.66 0c0,93.74 70.18,171.09 160.87,182.33z"/>
   <path class="fil4" d="M3445.99 2720.85l-372.53 0 0 0c0,-12.52 10.15,-22.66 22.7,-22.66l327.19 0c12.55,0 22.64,10.14 22.64,22.66l0 0z"/>
   <polygon class="fil4" points="3069.96,2533.4 3447.66,2533.4 3447.66,2527.77 3069.96,2527.77 "/>
   <path class="fil5" d="M745.51 926.19c-0.53,-2.87 -7.27,-33.58 -54.79,-28.34 0,0 23.66,-0.61 29.16,9.03 0,0 -17.65,-10.33 -29.98,-4.39 -12.29,5.93 -16.59,29.61 -15.58,37.05 1.01,7.44 11.66,30.35 20.12,31.2 3.21,0.33 6.76,-0.4 9.92,-1.42 -1.7,3.71 -3.28,7.77 -4.72,12.26 -13.24,41.47 11.73,76.49 27.07,69.99 9.88,-4.17 15.3,12.89 15.3,12.89l87.82 -95.01c0,0 -47.52,-70.34 -84.32,-43.26z"/>
   <path class="fil6" d="M859.92 2070.57l-21.37 7.96c0,0 -92.75,-128.69 -104.19,-241.9 -2.04,-20.22 -1.37,-39.8 3.04,-57.88 0,0 -0.88,-5.18 -2.49,-14.34 -0.72,-4.29 -1.63,-9.42 -2.66,-15.32 -3.02,-17.29 -7.17,-40.93 -11.92,-67.85 -10.91,-61.98 -25.06,-141.17 -36.03,-199.41l5.75 -1.85 62.27 -20.09 12.87 -40.88 46.37 -12.2c0,0 10.36,20.25 19.64,115.99 1.7,12.54 3.26,26.4 4.41,41.41 3.62,45.84 3.88,102.69 -4.41,167.69 -2.11,16.64 -4.8,33.8 -8.13,51.45 -2.44,12.95 -2.83,30.6 -1.8,50.83 4.68,92.55 38.65,236.39 38.65,236.39z"/>
   <path class="fil7" d="M835.61 1564.21l-100.7 200.2c-0.72,-4.29 -1.63,-9.42 -2.66,-15.32 -3.02,-17.29 -7.17,-40.93 -11.92,-67.85 -10.91,-61.98 -25.06,-141.17 -36.03,-199.41l5.75 -1.85 62.27 -20.09 12.87 -40.88 46.37 -12.2c0,0 10.36,20.25 19.64,115.99 1.7,12.54 3.26,26.4 4.41,41.41z"/>
   <path class="fil6" d="M791.33 1432.49l-2.36 -19.98c-39.03,10.36 -143.4,-28.99 -143.4,-28.99 0,0 -37.83,33.26 -32.85,112.98 2.43,38.91 6.87,204.25 11.47,253.16 1.67,17.75 3.14,30.36 3.74,35.42 0.02,0 0.02,0.02 0.02,0.05 0.17,1.53 -0.36,2.97 -1.15,4.31 -6.81,11.56 -12.44,23.6 -17.07,35.92 -45.39,120.98 7,269.97 7,269.97l13.59 -5.49c0,0 29.81,-165.8 54.04,-239.04 4.1,-12.45 8.06,-22.2 11.66,-28.03 10.55,-17 20.33,-44.79 29.2,-77.83 16.76,-62.45 30.26,-143.71 39.25,-206.43 1.22,0.07 26.86,-106.02 26.86,-106.02z"/>
   <path class="fil8" d="M804.06 1268.34c0.31,1.03 0.59,2.09 1.07,3.14 15.26,42.99 42.44,88.14 60.98,104.61 12.15,10.91 45.6,22.2 74.04,30.28 18.89,5.54 35.74,9.57 42.65,11.3 2.18,0.55 3.48,0.79 3.48,0.79l6.32 -18.73c0,0 -14.77,-9.23 -32.79,-21.36 -25.01,-17 -56.3,-39.37 -62.29,-49.01 -13.86,-22.37 -23.07,-90.72 -34.96,-136.88 -0.58,-2.49 -1.2,-4.89 -1.8,-7.26 -0.45,-1.75 -0.91,-3.45 -1.39,-5.13 -0.1,-0.36 -0.17,-0.87 -0.41,-1.25 -0.65,-1.92 -1.15,-3.64 -1.7,-5.23 0.02,-0.14 -0.1,-0.33 -0.24,-0.52 -2.4,-7.68 -8.01,-18.37 -8.01,-18.37 -3.47,-5.39 -7.27,-8.06 -11.37,-7.14 0,0 -5.58,1.7 -12.75,6.64 -1.51,1 -3.07,2.18 -4.7,3.52 -1.08,0.63 -1.89,1.46 -2.71,2.31 -5.66,5.05 -11.53,12.05 -16.01,21.43 -3.41,7.1 -6.07,15.49 -7.41,25.58 -2.3,16.52 2.1,38.51 10,61.28z"/>
   <path class="fil8" d="M825.23 1189.87c-11.32,7.38 -25.42,13.36 -43.02,16.88 -65.91,13.31 -89.45,-42.75 -97.79,-81.02 9.06,-4.86 17.5,-5.76 22.36,-6.2 4.75,-0.42 9.76,-0.65 13.89,-0.74 7.5,-5.43 19.11,-28.17 22.53,-63.89l3.08 0.91 51.21 15.58c0,0 -2.83,16.34 -4.42,31.82 -1.24,12.1 -1.72,23.7 0.51,26.6 4,0.98 6.4,1.63 6.4,1.63 0,0 0,0.02 0.02,0.05 0.67,1.15 14.94,26.2 25.23,58.38z"/>
   <path class="fil9" d="M797.49 1071.4c0,0 -2.83,16.33 -4.42,31.82 -29.17,-3.76 -41.96,-31.98 -46.79,-47.4l51.21 15.58z"/>
   <path class="fil8" d="M805.78 1087.05c0,0 -69.29,-5.79 -65.02,-48.89 4.27,-43.1 -1.8,-72.87 42.63,-71.01 44.4,1.88 51.38,19.17 53.44,33.91 2.09,14.73 -12.9,86.38 -31.05,85.99z"/>
   <path class="fil10" d="M860.76 1185.22c-0.45,-1.75 -0.91,-3.45 -1.39,-5.13 -0.1,-0.36 -0.17,-0.87 -0.41,-1.25 -0.65,-1.92 -1.15,-3.64 -1.7,-5.23 0.02,-0.14 -0.1,-0.33 -0.24,-0.52 -2.4,-7.68 -8.01,-18.37 -8.01,-18.37 -2.52,-3.91 -5.06,-7.34 -7.81,-8.58 -2.19,-1.37 -14.22,-8.37 -41.22,-14.7 0,0 0,0.02 0.02,0.05 0.7,1.58 19.16,43.66 16.09,53.66 -3.12,10.14 -92.5,-8.23 -98.16,-14.56 -4.53,-5.08 -8.94,-34.81 -10.52,-46.42 -0.38,-2.87 -0.63,-4.64 -0.63,-4.64 0,0 -32.32,0.31 -49.1,10.11 0,0 9.26,14.27 14.29,30.76 0.48,1.56 0.94,3.14 1.32,4.73 0.84,3.35 1.44,6.73 1.73,10.07 0.38,4.43 -1.32,8.63 -4.39,12.94 -2.78,3.98 -6.71,8.06 -11.22,12.47 -2.95,2.86 -6.14,5.87 -9.4,9.11l0 0c2.57,19.9 8.7,52.34 10.09,87.73 0.34,8.97 -1.36,17.84 -4.89,26.01 -1.41,3.24 -3.09,6.38 -5.06,9.38 -15.67,23.71 -42.82,70.4 -31.72,95.4 4.1,24.51 216.08,26.71 207.73,0.36 0,0 9.35,-154.67 20.93,-193.35 0.41,-1.41 0.77,-2.8 1.08,-4.19 3.24,-14.7 0.41,-28.91 -3.19,-41.57 5.59,-2.3 11.56,-3.6 15.78,-4.27z"/>
   <path class="fil5" d="M837.17 976.89c-9.38,-14.04 -17.75,-12 -22.68,-8.55 -35.73,-24.58 -63.18,3.71 -63.18,3.71 -7.72,30.46 -31.8,45.94 -31.8,45.94 0,0 11.83,9.06 41.65,4.5 9.11,-1.4 17.67,-6.92 25.18,-13.9 -13.74,18.55 -31.17,31.15 -31.17,31.15 36.33,-12.58 55.12,-59.48 57.02,-64.44 3.83,4.21 11.33,13.28 13.06,21.61 2.35,11.33 1.66,34.07 8.3,33.97 0,0 17.72,-32.94 3.62,-53.99z"/>
   <path class="fil11" d="M763.01 1386.26c-40.93,5.49 -81.71,-31.94 -107.8,-62.8 3.53,-8.17 5.23,-17.04 4.89,-26.01 -1.39,-35.39 -7.52,-67.83 -10.09,-87.73l0 0c3.26,-3.24 6.45,-6.25 9.4,-9.11 4.51,-4.41 8.44,-8.49 11.22,-12.47 41.69,51.74 147.91,190.64 92.38,198.12z"/>
   <path class="fil8" d="M1050.72 1427.06c-9.21,2.67 -23.04,14.08 -41.84,3.94 -13.45,-7.15 -27.9,-12.73 -34.95,-15.37 -2.81,-0.89 -4.42,-1.49 -4.42,-1.49l10.51 -21.79c0,0 0.26,0.17 0.91,0.38 4.94,1.7 30.02,10.22 42.39,8.9 13.93,-1.56 34.74,17.43 34.74,17.43 0,0 1.85,5.49 -7.34,8z"/>
   <path class="fil7" d="M695.78 2106.43l-107.61 0c0,0 -2.56,-16.4 3.05,-28.84 5.4,-11.91 13.84,-17.36 11.8,-31.79 6.83,7.02 17.98,14.91 33.54,12.82 1.89,3.1 12.3,19.62 18.68,24.19 7.02,5.06 38.36,3.27 40.54,23.62z"/>
   <path class="fil7" d="M926.79 2106.43l-107.6 0c0,0 -4.03,-17.17 3.04,-28.84 6.26,-10.31 3.86,-16.21 -0.77,-24.74 4.87,1.98 11.17,3.78 18.13,3.4 5.35,-0.31 11.03,-2.73 15.99,-5.63 4.63,5.27 24.46,27.76 30.65,32.19 7.04,5.06 38.38,3.27 40.56,23.62z"/>
   <path class="fil12" d="M789.26 1062.13c0,0 0.96,5.7 15.01,5.71 0,0 11.8,0.01 11.82,-6.18 0,0 -11.12,-5.12 -26.83,0.47z"/>
   <path class="fil8" d="M905 1400.35c0,0 9.23,-0.33 15.89,-3.9 6.69,-3.57 28.49,2.16 26.38,5.06 -2.11,2.9 -14.32,-0.67 -15.47,0.98 -1.15,1.63 -5.61,3.72 -5.61,3.72l-21.19 -5.86z"/>
   <path class="fil3" d="M1428.25 1735.36l-363.38 0c-78.33,0 -141.84,-63.52 -141.84,-141.85l0 -363.36c0,-78.33 63.51,-141.84 141.84,-141.84l363.38 0c78.33,0 141.82,63.51 141.82,141.84l0 363.36c0,78.33 -63.49,141.85 -141.82,141.85z"/>
   <path class="fil13" d="M1486.28 1247.58l0 315.93c0,9.41 -1.59,18.42 -4.49,26.83 -9.95,28.8 -35.46,50.33 -66.48,54.53 -3.65,0.5 -7.37,0.77 -11.13,0.77l-315.96 0c-35.6,0 -65.91,-22.67 -77.27,-54.33 -3.14,-8.69 -4.82,-18.04 -4.82,-27.8l0 -315.93c0,-45.34 36.75,-82.12 82.09,-82.12l315.96 0c45.34,0 82.1,36.78 82.1,82.12z"/>
   <path class="fil8" d="M1204.94 1383.26c0,0 -1.61,49.46 -7.94,71.62l-50.09 34.95 188.6 28.23 -44.98 -62.15c0,0 -13.59,-66.32 -6.44,-90.85 7.11,-24.52 -79.15,18.2 -79.15,18.2z"/>
   <path class="fil9" d="M1204.67 1390.1c0,-0.03 14.92,35.89 42.99,35.1 28.11,-0.79 34.51,-32.57 34.51,-32.57l-77.5 -2.53z"/>
   <path class="fil14" d="M1187.89 1361.01c0,0 -9.06,-45.27 -15.39,-59.01 -6.33,-13.71 -11.61,-74.89 58.55,-78.06 0,0 26.9,3.17 41.67,-5.8 0,0 0,8.97 -3.69,12.13 0,0 24.28,-5.8 43.27,15.3 18.99,21.09 -12.66,94.97 -11.07,112.37l-113.34 3.07z"/>
   <path class="fil8" d="M1244.45 1411.34c-20.36,-0.36 -57.83,-27.48 -57.83,-61.04l0 -52.37c0,-12.25 8.56,-22.3 18.99,-22.3l77.68 0c10.43,0 18.99,10.05 18.99,22.3l0 49.41c0,35.21 -34.47,64.4 -57.83,64z"/>
   <path class="fil14" d="M1186.62 1325.88c0,0 0.12,-31.45 25.06,-36.29 24.91,-4.84 80.7,15.32 88.61,-7.63 7.91,-22.94 -107.84,-22.53 -113.67,-7.91 -5.83,14.65 0,51.83 0,51.83z"/>
   <path class="fil15" d="M1362.75 1469.84c-0.03,0 -0.05,-0.02 -0.07,-0.02 -5.27,-1.95 -8.04,-2.19 -8.04,-2.19l0 0.1c-20.49,-5.16 -39.89,-8.73 -57.99,-11.05 -2.07,-0.29 -4.1,-0.53 -6.12,-0.77 -12.37,16.45 -22.27,23.95 -32.68,29.18 -2.32,1.15 -4.65,2.2 -7.02,3.21 -2.09,0.86 -4.2,1.73 -6.38,2.57 -2.73,-0.36 -5.39,-1.06 -8.01,-1.99 -1.51,-0.55 -2.97,-1.18 -4.43,-1.85 -19.92,-9.42 -35.01,-31.55 -35.01,-32.15 -2.78,0.29 -5.52,0.6 -8.12,0.93 -23.55,2.95 -39.57,7.31 -46.5,9.47 0,0 -0.02,0 -0.04,0 -1.44,0.17 -52.8,7.25 -131.39,126.03 11.36,31.66 41.67,54.33 77.27,54.33l315.96 0c3.76,0 7.48,-0.27 11.13,-0.77 31.02,-4.2 56.53,-25.73 66.48,-54.53 -59.53,-90.34 -102.12,-114.24 -119.04,-120.5z"/>
   <path class="fil4" d="M1199.64 1442.82c0,0 -8.37,3.5 -10.76,12.99 0,0 33.61,34.55 55.57,35.08l-44.81 -48.07z"/>
   <path class="fil4" d="M1244.45 1490.89l43.38 -49.82c0,0 8.94,5.9 8.82,15.58 0,0 -33.55,35.56 -52.2,34.24z"/>
   <path class="fil4" d="M1263.85 1645.64l-43.33 0c5.11,-58.2 11.34,-115.74 14.34,-142.64 0.6,-5.47 1.08,-9.66 1.39,-12.37 0.05,-0.44 0.08,-0.84 0.12,-1.2 0.05,-0.19 0.05,-0.41 0.07,-0.55 0.15,-1.11 0.19,-1.66 0.19,-1.66l4.35 -0.07 6.83 -0.12 0.02 0 2.88 -0.05c0,0 0.05,0.44 0.12,1.32 0.05,0.46 0.09,1.06 0.17,1.8 0.04,0.55 0.07,1.2 0.14,1.89 0.26,3.19 0.65,7.8 1.13,13.6 2.37,28.1 7.02,84.06 11.58,140.05z"/>
   <path class="fil11" d="M1227.98 1473.22c0,0 19.99,-2.02 32.17,-0.77 2.42,0.25 3.77,2.88 2.59,5.01 -3.42,6.14 -10.38,16.79 -17.66,16.79 -10.22,0 -26.16,-20.33 -17.1,-21.03z"/>
   <path class="fil8" d="M968.25 1423.47c-5.69,7.72 -20.7,19.47 -40.07,10.48 -13.86,-6.31 -28.63,-11.03 -35.82,-13.24 -2.86,-0.72 -4.48,-1.22 -4.48,-1.22l9.16 -22.39c0,0 0.26,0.14 0.93,0.33 5.04,1.39 29.9,1.46 43.59,8.78 15.82,8.48 33.38,8.22 26.69,17.26z"/>
   <path class="fil8" d="M905.88 1400.29l-3.83 21.09c0,0 -7.2,-0.67 -18.65,-1.8 -3.43,-0.33 -5.42,-0.64 -5.42,-0.64 -9.16,-1.01 -20.17,-2.47 -32.16,-4.03l-0.14 0c-20.57,-3.07 -43.62,-6.93 -63.18,-11.73 -13.76,-3.5 -25.8,-7.48 -34.12,-11.79 -0.86,-0.41 -1.53,-0.84 -2.4,-1.41 -20.04,-12.04 -45.91,-50.38 -67.06,-92.02 -2.92,-5.76 -5.7,-11.51 -8.46,-17.13 -9.92,-20.88 -18.2,-41.57 -23.66,-59.6 -3.39,-10.74 -5.86,-20.57 -6.89,-28.77 -0.4,-2.88 -0.81,-5.61 -0.86,-8.2 -0.12,-1.49 -0.21,-2.95 -0.29,-4.37 8.11,-7.07 26.79,-20.3 52.25,-18.94 0.52,0.92 1.05,1.83 1.58,2.76 10.98,19.98 22.97,46.04 34.31,71.98 6.28,14.22 12.37,28.46 18.37,41.57 3.47,7.99 6.88,15.47 10.06,22.35 6.17,13.09 11.64,23.64 16.26,30.21 2.98,4.29 10.91,9.92 21.36,16.16 18.16,10.93 44.41,23.74 67.21,34.09 9.47,4.37 18.41,8.3 25.85,11.53 11.96,5.31 19.87,8.69 19.87,8.69z"/>
   <path class="fil10" d="M692.54 1163.78c-31.74,-5.85 -53.56,20.43 -53.56,20.43 -3.67,-46.66 18.99,-55.05 18.99,-55.05 9.02,-4.67 21.24,10.55 34.57,34.62z"/>
   <path class="fil4" d="M4216.58 1857.03l-471.74 0c-10.31,0 -18.78,-8.44 -18.78,-18.75l0 -57.25c0,-10.31 8.47,-18.73 18.78,-18.73l471.74 0c10.3,0 18.72,8.42 18.72,18.73l0 57.25c0,10.31 -8.42,18.75 -18.72,18.75z"/>
   <path class="fil16" d="M3849.49 1857.03l-6.02 55.43 -87.6 802.49c-0.26,2.78 -2.2,4.91 -4.6,4.91 -4.45,0 -7.95,-4.67 -7.48,-10.02l69.4 -821.76 2.67 -31.05 33.63 0z"/>
   <path class="fil17" d="M3849.49 1857.03l-6.02 55.43c-4.18,-22.08 -30.28,-24.38 -30.28,-24.38l2.67 -31.05 33.63 0z"/>
   <path class="fil16" d="M4210.1 2719.86c-2.36,0 -4.34,-2.13 -4.61,-4.91l-87.55 -802.49 -3.76 -34.57 -2.25 -20.86 33.57 0 2.67 31.05 2.04 24.34 67.42 797.42c0.47,5.35 -3.04,10.02 -7.53,10.02z"/>
   <path class="fil17" d="M4150.21 1912.42c-8.52,-26.4 -36.03,-34.53 -36.03,-34.53 0,0 0,0 0,0l-2.25 -20.86 33.57 0 2.67 31.05 2.04 24.34z"/>
   <path class="fil4" d="M953.98 2167.12l-479.21 0c-8.25,0 -15.01,-6.74 -15.01,-14.99l0 -30.69c0,-8.24 6.76,-15.01 15.01,-15.01l479.21 0c8.25,0 15.01,6.77 15.01,15.01l0 30.69c0,8.25 -6.76,14.99 -15.01,14.99z"/>
   <path class="fil16" d="M583.16 2167.12l-6.04 35.5 -87.56 514.08c-0.26,1.8 -2.23,3.16 -4.58,3.16 -4.51,0 -8.01,-2.99 -7.53,-6.42l69.46 -526.42 2.61 -19.9 33.64 0z"/>
   <path class="fil17" d="M583.16 2167.12l-6.04 35.5c-4.14,-14.14 -30.21,-15.6 -30.21,-15.6l2.61 -19.9 33.64 0z"/>
   <path class="fil16" d="M943.77 2719.86c-2.35,0 -4.32,-1.36 -4.59,-3.16l-87.56 -514.08 -3.76 -22.15 -2.28 -13.35 33.64 0 2.61 19.9 2.07 15.6 67.39 510.82c0.48,3.43 -3.02,6.42 -7.52,6.42z"/>
   <path class="fil17" d="M883.9 2202.62c-8.56,-16.92 -36.04,-22.12 -36.04,-22.12 0,0 0,0 0,-0.03l-2.28 -13.35 33.64 0 2.61 19.9 2.07 15.6z"/>
   <path class="fil3" d="M1664.94 951.68l-367.19 0c-79.14,0 -143.3,-64.16 -143.3,-143.31l0 -367.21c0,-79.15 64.16,-143.31 143.3,-143.31l367.19 0c79.15,0 143.34,64.16 143.34,143.31l0 367.2c0,79.16 -64.19,143.32 -143.34,143.32z"/>
   <path class="fil13" d="M1723.59 458.78l0 319.28c0,7.22 -0.93,14.24 -2.66,20.91 -6.74,25.95 -25.7,46.95 -50.39,56.48 -0.94,0.38 -1.9,0.72 -2.83,1.04 -8.52,2.94 -17.6,4.53 -27.1,4.53l-319.27 0c-4.2,0 -8.34,-0.32 -12.37,-0.93 -25.85,-3.86 -47.81,-19.65 -60.06,-41.6 -6.71,-11.96 -10.52,-25.75 -10.52,-40.43l0 -319.28c0,-45.82 37.14,-82.96 82.95,-82.96l319.27 0c45.84,0 82.98,37.14 82.98,82.96z"/>
   <path class="fil8" d="M1453.84 578.46c0,0 -1.4,43.46 -6.96,62.93l-44.04 30.72 165.75 24.8 -39.54 -54.61c0,0 -11.91,-58.27 -5.66,-79.83 6.26,-21.56 -69.55,15.99 -69.55,15.99z"/>
   <path class="fil9" d="M1453.6 584.47c0,-0.02 13.11,31.54 37.78,30.85 24.7,-0.7 30.31,-28.62 30.31,-28.62l-68.09 -2.23z"/>
   <path class="fil5" d="M1438.87 558.92c0,0 -7.98,-39.8 -13.54,-51.85 -5.56,-12.06 -10.19,-65.84 51.45,-68.62 0,0 23.64,2.78 36.64,-5.1 0,0 0,7.88 -3.24,10.66 0,0 21.32,-5.09 38,13.45 16.69,18.54 -11.12,83.45 -9.73,98.75l-99.58 2.71z"/>
   <path class="fil8" d="M1539.38 503.46l0 43.43c0,7.25 -1.68,14.23 -4.48,20.65l-0.03 0c-4.89,11.07 -13.16,20.48 -22.22,26.83 -8.06,5.65 -16.71,8.89 -24.1,8.76 -6.43,-0.13 -14.77,-3.27 -22.87,-8.63 -10.91,-7.23 -21.27,-18.44 -25.7,-31.66l-0.08 -0.19 -0.14 -0.55c-1.3,-4.05 -2.01,-8.26 -2.01,-12.6l0 -46.04c0,-10.77 7.5,-19.58 16.68,-19.58l68.24 0c9.19,0 16.71,8.81 16.71,19.58z"/>
   <path class="fil18" d="M1585.39 652.71c0,0 -38.91,-8.38 -56.34,-10.41 -15.39,20.43 -26.42,25.92 -40.47,31.49 -22.64,-3.13 -41.7,-31.75 -41.7,-32.4 -24.62,2.55 -41.24,7.79 -48.02,9.91l-0.03 0c-1.58,0.19 -61.86,8.59 -149.92,167.94 12.25,21.95 34.21,37.74 60.06,41.6 11.34,-9.8 35.73,-30.97 54.84,-47.57 -0.22,5.36 -0.27,10.21 -0.15,14.44 0.34,11.41 0.7,22.73 0.96,34.06l240.29 0c-0.46,-5.75 -0.84,-11.3 -1.1,-16.6 -0.82,-16.52 -1.58,-31.6 -2.3,-45.37 0,-0.12 0,-0.24 -0.03,-0.36 0,-0.15 -0.02,-0.29 -0.02,-0.44 0.02,0.02 0.02,0.04 0.05,0.05 3.49,3.01 7.62,6.62 12.15,10.54 0.89,0.78 1.82,1.57 2.73,2.39 0.82,0.69 1.61,1.39 2.45,2.11 1.13,0.97 2.25,1.95 3.41,2.96 2.06,1.79 4.14,3.59 6.23,5.42 0.96,0.84 1.94,1.68 2.9,2.52 0.5,0.45 1.03,0.89 1.56,1.34 0.57,0.51 1.17,1.02 1.77,1.54 0.43,0.38 0.89,0.75 1.32,1.14 1.03,0.89 2.06,1.79 3.07,2.68 0.84,0.74 1.68,1.45 2.52,2.17 0.67,0.6 1.39,1.21 2.08,1.81 2.52,2.2 4.99,4.35 7.39,6.43 0.96,0.83 1.91,1.66 2.85,2.47 0.98,0.85 1.97,1.69 2.9,2.5 0.67,0.59 1.32,1.17 1.99,1.73 0.29,0.26 0.57,0.51 0.86,0.75 1.01,0.87 1.97,1.73 2.93,2.52 0.96,0.86 1.92,1.69 2.81,2.47 0.38,0.33 0.76,0.64 1.13,0.95 0.38,0.35 0.76,0.68 1.15,1 0.93,-0.32 1.89,-0.66 2.83,-1.04 24.69,-9.53 43.65,-30.53 50.39,-56.48 -82.48,-142.01 -135.54,-146.26 -135.54,-146.26z"/>
   <path class="fil5" d="M1437.75 528.04c0,0 0.09,-27.65 22.01,-31.9 21.89,-4.26 70.92,13.47 77.87,-6.69 6.96,-20.17 -94.75,-19.82 -99.88,-6.96 -5.13,12.87 0,45.55 0,45.55z"/>
   <path class="fil11" d="M1393.1 861.02l-28.48 0c-0.26,-11.34 -0.62,-22.65 -0.96,-34.07 -0.12,-4.23 -0.07,-9.07 0.15,-14.44 0.04,-1.19 0.09,-2.41 0.14,-3.66 0.29,0.45 0.77,1.22 1.44,2.3 4.24,6.94 15.87,26.28 27.71,49.87z"/>
   <path class="fil5" d="M1512.65 575.23l0 19.14c-8.06,5.65 -16.71,8.89 -24.1,8.76 -6.43,-0.13 -14.77,-3.27 -22.87,-8.63l0 -19.27c0,-10.69 8.75,-19.43 19.42,-19.43l8.1 0c10.7,0 19.45,8.74 19.45,19.43z"/>
   <path class="fil11" d="M1670.54 855.45c-0.94,0.38 -1.9,0.72 -2.83,1.04 -0.39,-0.32 -0.77,-0.65 -1.15,-1 -0.37,-0.31 -0.75,-0.62 -1.13,-0.95 -0.89,-0.78 -1.85,-1.61 -2.81,-2.47 -0.96,-0.79 -1.92,-1.65 -2.93,-2.52 -0.29,-0.24 -0.57,-0.49 -0.86,-0.75 -0.67,-0.56 -1.32,-1.14 -1.99,-1.73 -0.93,-0.81 -1.92,-1.65 -2.9,-2.5 -0.94,-0.81 -1.89,-1.64 -2.85,-2.47 -2.4,-2.08 -4.87,-4.23 -7.39,-6.43 -0.69,-0.6 -1.41,-1.21 -2.08,-1.81 -0.84,-0.72 -1.68,-1.43 -2.52,-2.17 -1.01,-0.89 -2.04,-1.79 -3.07,-2.68 -0.43,-0.39 -0.89,-0.76 -1.32,-1.14 -0.6,-0.52 -1.2,-1.03 -1.77,-1.54 -0.53,-0.45 -1.06,-0.89 -1.56,-1.34 -0.96,-0.84 -1.94,-1.68 -2.9,-2.52 -2.09,-1.83 -4.17,-3.63 -6.23,-5.42 -1.16,-1.01 -2.28,-1.99 -3.41,-2.96 -0.84,-0.72 -1.63,-1.42 -2.45,-2.11 -0.91,-0.82 -1.84,-1.61 -2.73,-2.39 -4.53,-3.92 -8.66,-7.53 -12.15,-10.54 -0.08,-0.08 -0.17,-0.13 -0.25,-0.21 0,0 0.08,-0.06 0.22,-0.15 2.28,-1.61 23.07,-15.33 36.18,7.87 9.26,16.32 24,36.91 32.88,48.89z"/>
   <path class="fil5" d="M1534.87 567.54c-9.18,20.9 -30.61,35.86 -46.32,35.59 -15.08,-0.28 -40.88,-17.28 -48.57,-40.29l-0.08 -0.19 -0.14 -0.55c0,0 16.21,13.82 26.93,6.97l45.02 0c0,0 11.8,6.74 23.16,-1.53z"/>
   <path class="fil8" d="M1494.02 572.89l-9.71 0c-2.23,0 -5.06,-3.64 -5.06,-5.87 0,0 2.83,-2.22 5.06,-2.22l9.71 0c2.23,0 5.47,1.84 5.99,3.16 0,0 -1.34,4.93 -5.99,4.93z"/>
   <path class="fil3" d="M2447.19 938.34l-367.19 0c-79.17,0 -143.33,-64.16 -143.33,-143.32l0 -367.19c0,-79.16 64.16,-143.32 143.33,-143.32l367.19 0c79.15,0 143.31,64.16 143.31,143.32l0 367.19c0,79.16 -64.16,143.32 -143.31,143.32z"/>
   <path class="fil13" d="M2505.82 445.45l0 319.27c0,20.41 -7.39,39.1 -19.6,53.56 -15.22,17.97 -37.95,29.4 -63.36,29.4l-319.27 0c-20.95,0 -40.11,-7.77 -54.69,-20.59 -17.36,-15.2 -28.26,-37.51 -28.26,-62.37l0 -319.27c0,-45.82 37.13,-82.98 82.95,-82.98l319.27 0c45.82,0 82.96,37.16 82.96,82.98z"/>
   <path class="fil5" d="M2229.32 659.56c0,0 -52.07,-2.61 -53.54,-32.67 -1.46,-30.06 -44.49,-51.98 -32.03,-76.11 15.28,-29.59 1.34,-58.04 20.64,-77.94 21.25,-21.93 48.1,-10.02 62.27,-22.79 14.17,-12.78 40.09,-24.55 65.63,-8.77 25.55,15.78 45.05,7.28 61.85,22.48 18.56,16.8 11.51,37.94 26.83,49.41 14.03,10.52 8.3,39.27 -3.52,62.62 -8.51,16.84 11.13,32.61 -22.59,51.96 -14,8.05 -10.98,28.31 -53.56,31.81 -19.15,1.57 -60.78,-7.41 -71.98,0z"/>
   <path class="fil19" d="M2230.88 632.9c0,0 -1.51,46.97 -7.53,68.01l-47.57 33.19 179.08 26.8 -42.7 -59.02c0,0 -12.9,-62.96 -6.13,-86.26 6.75,-23.3 -75.15,17.28 -75.15,17.28z"/>
   <path class="fil20" d="M2230.62 639.39c0,-0.02 14.17,34.09 40.85,33.34 26.66,-0.75 32.73,-30.92 32.73,-30.92l-73.58 -2.42z"/>
   <path class="fil19" d="M2268.41 659.56c-19.33,-0.35 -54.91,-26.08 -54.91,-57.95l0 -49.75c0,-11.63 8.1,-21.16 18.03,-21.16l73.75 0c9.92,0 18.03,9.53 18.03,21.16l0 46.93c0,33.42 -32.73,61.16 -54.9,60.77z"/>
   <path class="fil14" d="M2373.06 713.86c0,0 0,0 -0.02,0 -21.68,-5.45 -42.06,-9.78 -60.88,-11.98 -16.64,22.07 -28.56,27.96 -43.75,33.97 -24.44,-3.38 -45.06,-34.25 -45.06,-34.94 -26.61,2.72 -44.54,8.35 -51.88,10.63 0,0 -0.03,0 -0.07,0.01 -2.16,0.28 -49.75,7.66 -122.5,116.29 14.58,12.83 33.74,20.59 54.69,20.59l285.63 0c0,-0.26 -0.02,-0.5 -0.02,-0.75l33.66 0c25.41,0 48.14,-11.43 63.36,-29.4 -51.11,-87.76 -113.16,-104.42 -113.16,-104.42z"/>
   <path class="fil5" d="M2213.5 572.03c0,0 13.42,-40.95 57.37,-34.56 43.97,6.39 47.77,15.78 52.44,26.67 4.68,10.9 13.69,-39.82 13.69,-39.82l-51.86 -15.41c0,0 -62.72,7.14 -67.23,17.66 -4.53,10.52 -4.53,10.52 -4.53,10.52l0.12 34.94z"/>
   <path class="fil5" d="M2319.26 587.4c-1.37,6.78 -6.45,11.1 -15.13,12.86 -6.59,1.35 -12.88,0.61 -12.95,0.6l-0.07 0c-6.43,0 -11,-3.76 -14.36,-11.8 -0.46,-1.05 -1.39,-3.59 -1.61,-6.25 0,0 0,-0.01 0,-0.01 0.43,0.18 0.89,0.38 1.32,0.61 0.46,0.24 1,0.07 1.24,-0.38 0.25,-0.45 0.05,-1 -0.38,-1.24 -0.72,-0.38 -1.46,-0.68 -2.18,-0.94 0,0 0,-0.01 0,-0.02 0.08,-1.25 0.38,-2.45 1.08,-3.45 1.36,-2.07 4.03,-3.11 7.91,-3.11l23.33 0c4.15,0 7.77,1.51 9.92,4.16 1.92,2.34 2.57,5.45 1.88,8.97zm-57.57 -4.44c-0.26,2.62 -1.18,5.06 -1.6,6.1 -3.36,8.04 -7.92,11.8 -14.35,11.8l-0.11 0c-0.05,0.01 -6.33,0.75 -12.95,-0.6 -8.66,-1.76 -13.72,-6.08 -15.08,-12.86 -0.72,-3.52 -0.1,-6.63 1.84,-8.97 2.16,-2.65 5.78,-4.16 9.91,-4.16l23.35 0c3.88,0 6.57,1.04 7.93,3.11 0.7,1.05 1.01,2.31 1.08,3.62l0 0.01c-1.17,0.38 -1.94,0.71 -2.03,0.76 -0.46,0.21 -0.68,0.75 -0.46,1.21 0.17,0.34 0.5,0.54 0.84,0.54 0.12,0 0.27,-0.03 0.38,-0.09 0.03,0 0.48,-0.21 1.25,-0.47 0,0 0,0 0,0zm56.9 -5.51c-2.48,-3 -6.52,-4.71 -11.13,-4.71l-23.33 0c-4.43,0 -7.53,1.26 -9.21,3.79 -0.79,1.15 -1.17,2.49 -1.31,3.85 0,0.01 0,0.01 0,0.02 -3.91,-0.98 -7.72,-0.49 -10.36,0.18l0 -0.02c-0.12,-1.42 -0.53,-2.82 -1.34,-4.03 -1.68,-2.53 -4.77,-3.79 -9.21,-3.79l-23.35 0c-4.58,0 -8.64,1.71 -11.08,4.71 -2.25,2.72 -3,6.28 -2.18,10.26 2.66,13.19 17.83,14.88 25.44,14.88 2.32,0 3.93,-0.17 4.24,-0.2 7.1,-0.02 12.11,-4.07 15.73,-12.75 0.62,-1.48 1.63,-4.26 1.77,-7.16l0 0c2.52,-0.68 6.41,-1.28 10.29,-0.21l0 0c0.12,2.98 1.13,5.86 1.77,7.37 3.62,8.68 8.64,12.73 15.73,12.75 0.29,0.03 1.92,0.2 4.27,0.2 7.57,0 22.78,-1.69 25.41,-14.87 0.82,-3.99 0.05,-7.55 -2.15,-10.27z"/>
   <path class="fil3" d="M3363.94 923.12l-427.4 -49.3c-61.35,-7.07 -105.34,-62.53 -98.27,-123.87l49.29 -427.4c7.08,-61.34 62.53,-105.33 123.87,-98.26l427.4 49.29c61.35,7.08 105.33,62.54 98.27,123.88l-49.27 427.4c-7.11,61.34 -62.55,105.33 -123.89,98.26z"/>
   <path class="fil13" d="M3447.35 436.58l-36.55 317.16c-1.47,12.4 -5.55,23.83 -11.67,33.81l0 0.02c-9.46,15.43 -23.79,27.37 -40.53,33.94 -9.62,3.77 -20.03,5.78 -30.85,5.69l0 0c-2.93,-0.02 -5.92,-0.2 -8.9,-0.54l-134.46 -15.51 -26.57 -3.06 -86.92 -10.03 -11.14 -1.29 -58.05 -6.7c-31.28,-3.6 -56.43,-24.12 -67.47,-51.36 -0.73,-1.77 -1.36,-3.55 -1.93,-5.37 -2.41,-7.24 -3.77,-14.86 -4.03,-22.73 -0.16,-4.1 0,-8.26 0.47,-12.46l36.61 -317.16c5.23,-45.52 46.39,-78.17 91.89,-72.92l317.2 36.57c45.5,5.26 78.13,46.4 72.9,91.94z"/>
   <path class="fil21" d="M3313.05 509.78c-0.05,-0.25 -0.11,-0.51 -0.16,-0.75 -0.99,-5.8 -2.14,-11.55 -3.45,-17.21 0,0 0,-0.01 0,-0.01 7.06,-45.35 -10.36,-64.73 -25.42,-74.56l0 -0.01c-8.05,-15.81 -16.73,-26.94 -24.95,-30.73 -14.95,-6.9 -32.11,-6.35 -44.03,-4.64 2.82,-3.43 8.79,-5.1 8.79,-5.1 -7.48,-0.48 -23.44,8.27 -23.44,8.27 -106.53,-31.06 -109.93,122.22 -104.8,157.33 5.17,35.11 -30.7,49.74 -82.06,82.07 -46.6,29.38 -71.76,61.06 -85.25,86.17 0.26,7.87 1.62,15.49 4.03,22.73 1.67,-1.51 3.34,-2.65 5.02,-3.27 -0.11,0.31 -1.36,3.77 -3.09,8.64 11.04,27.24 36.19,47.76 67.47,51.36l58.05 6.7 11.14 1.29 86.92 10.03c9.1,-12.94 19.04,-26.33 29.39,-39.62 25.11,-32.4 52.57,-64.19 76.52,-87.33 7.85,-7.64 15.32,-14.32 22.23,-19.78 0.26,-0.2 0.52,-0.41 0.78,-0.6 3.35,-5.95 6.07,-12.84 8.21,-19.97 7.38,-24.03 8.74,-50.8 8.84,-53.46 0,24.83 -2.14,42.05 -5.02,53.99 -1.1,4.74 -2.35,8.64 -3.56,11.87 3.04,-3.32 5.7,-7.06 8.16,-11.17 18.1,-31.03 18.31,-83.08 9.68,-132.24z"/>
   <path class="fil8" d="M3269.9 670.47c0.37,0.19 -35.04,13.67 -59.36,3.91 -22.91,-9.17 -34.83,-41.58 -34.47,-41.61 10.26,-0.83 14.7,-14.25 21.29,-73.35l4.45 1.41 74.32 23.83c0,0 -4.5,23.73 -7.17,46.27 -2.2,18.93 -3.14,37.02 0.94,39.54z"/>
   <path class="fil22" d="M3175.34 418.62c0,0 34.26,-43.24 84.73,-9.21 0,0 -27.93,-2.43 -84.73,9.21z"/>
   <path class="fil23" d="M3276.13 584.66c0,0 -4.5,23.73 -7.17,46.27 -42.42,-6.11 -60.41,-47.52 -67.15,-70.1l74.32 23.83z"/>
   <path class="fil8" d="M3288.05 598.22c0,0 -100.89,10.18 -106.27,-52.72 -5.34,-62.9 -21.97,-103.96 42.2,-113.12 64.17,-9.15 78.71,13.78 85.62,34.34 6.9,20.56 4.55,127.23 -21.55,131.5z"/>
   <path class="fil21" d="M3269.85 426.96c0,0 -21.44,76.14 -62.97,90.63 -41.53,14.49 -60.88,4.67 -60.88,4.67 0,0 30.39,-28.6 33.32,-74.31 0,0 66.68,-54.35 90.53,-20.99z"/>
   <path class="fil21" d="M3263.47 433.53c0,0 22.07,14.74 28.45,30.34 6.38,15.59 11.4,48.38 20.92,46.45 0,0 16.63,-51.92 -9.15,-78.33 -27.41,-27.99 -40.22,1.54 -40.22,1.54z"/>
   <path class="fil22" d="M3356.25 665.51c-10.46,-13.13 -31.91,-19.96 -52.88,-23.49 -1.57,-0.24 -3.03,-0.48 -4.6,-0.7 -1.25,-0.18 -2.56,-0.37 -3.82,-0.53 -8.84,-1.16 -17.36,-1.75 -24.58,-2.07 -1.1,-1.53 -1.78,-2.48 -1.93,-2.76 -0.11,-0.06 -0.11,-0.09 -0.11,-0.09l-85.25 -6.91 -0.94 -0.08c0,0 -0.05,0 -0.15,-0.01 -0.06,0 -0.11,-0.01 -0.21,-0.01 -6.38,-0.69 -94.77,-9.46 -111.82,21.7 -11.19,20.37 -11.4,59.35 -6.12,102.6 -1.62,14.66 -2.93,29.59 -4.08,43.61l11.14 1.29 86.92 10.03 26.57 3.06 134.46 15.51c2.98,0.34 5.97,0.52 8.9,0.54l0 0c10.82,0.09 21.23,-1.92 30.85,-5.69 16.74,-6.57 31.07,-18.51 40.53,-33.94l0 -0.02c-12.91,-52.93 -29.13,-104.76 -42.88,-122.04z"/>
   <path class="fil3" d="M3391.76 1737.54l-366.99 0c-79.13,0 -143.25,-64.14 -143.25,-143.24l0 -367c0,-79.1 64.12,-143.24 143.25,-143.24l366.99 0c79.08,0 143.25,64.14 143.25,143.24l0 367c0,79.1 -64.17,143.24 -143.25,143.24z"/>
   <path class="fil13" d="M3450.34 1244.92l0 319.07c0,7.99 -1.1,15.71 -3.2,23 -9.62,33.35 -39.59,58.07 -75.62,59.82 -1.36,0.07 -2.72,0.12 -4.08,0.12l-319.08 0c-0.58,0 -1.15,0 -1.73,-0.05 -0.52,0 -1.1,0 -1.62,-0.05 -36.19,-1.42 -66.37,-26.01 -76.2,-59.34 -2.2,-7.45 -3.35,-15.34 -3.35,-23.5l0 -319.07c0,-45.79 37.14,-82.93 82.9,-82.93l319.08 0c45.81,0 82.9,37.14 82.9,82.93z"/>
   <path class="fil8" d="M3160.18 1392.75c0,0 -1.89,56.75 -9.1,82.17l-57.53 40.12 216.41 32.36 -51.62 -71.3c0,0 -15.58,-76.08 -7.37,-104.23 8.16,-28.15 -90.79,20.88 -90.79,20.88z"/>
   <path class="fil9" d="M3159.86 1400.6c0,-0.03 17.1,41.19 49.32,40.28 32.22,-0.91 39.54,-37.36 39.54,-37.36l-88.86 -2.92z"/>
   <path class="fil5" d="M3140.56 1367.25c0,0 -10.4,-51.98 -17.62,-67.71 -7.27,-15.73 -13.34,-85.96 67.2,-89.58 0,0 30.86,3.62 47.81,-6.66 0,0 0,10.28 -4.24,13.93 0,0 27.82,-6.67 49.63,17.55 21.76,24.21 -14.54,108.94 -12.71,128.92l-130.07 3.55z"/>
   <path class="fil8" d="M3205.47 1424.96c-23.33,-0.41 -66.32,-31.51 -66.32,-70.01l0 -60.11c0,-14.05 9.78,-25.56 21.81,-25.56l89.07 0c11.97,0 21.81,11.51 21.81,25.56l0 56.7c0,40.38 -39.54,73.9 -66.37,73.42z"/>
   <path class="fil5" d="M3139.15 1326.92c0,0 0.11,-36.11 28.71,-41.65 28.61,-5.56 92.63,17.6 101.68,-8.73 9.1,-26.32 -123.69,-25.89 -130.39,-9.08 -6.69,16.8 0,59.46 0,59.46z"/>
   <path class="fil11" d="M3351.17 1646.93l-302.81 0c-0.58,0 -1.15,0 -1.73,-0.05 7.69,-69.36 24.11,-153.04 37.24,-158.53 0,0 1.52,-0.58 4.45,-1.46 0.05,-0.03 0.05,-0.03 0.05,-0.03 6.85,-2.13 21.44,-6.13 42.62,-9.4 0.06,0 0.06,0 0.11,0 6.12,-0.95 12.76,-1.79 19.98,-2.54 0,0.84 24.89,37.24 54.39,41.32 18.41,-7.27 32.79,-13.46 52.87,-40.14 6.65,0.79 13.44,1.7 20.35,2.78 16.89,2.59 34.67,6.12 53.24,10.79 2.2,0.55 4.39,1.13 6.64,1.72l0 0c0.89,0.2 1.78,0.46 2.67,0.7 0,0 0.21,0.91 0.73,6.33 0,0 0,0 0,0.02 1.1,12.33 3.82,47.86 9.2,148.49z"/>
   <path class="fil6" d="M3086.28 1487.27c-0.06,0 -0.16,0.02 -0.21,0.05 -1.15,0.26 -2.67,0.67 -4.66,1.34 -0.1,0.05 -0.21,0.07 -0.26,0.1 -0.16,0.05 -0.26,0.07 -0.31,0.1 -0.11,0.04 -0.16,0.04 -0.16,0.04 -16,5.56 -56.01,25.85 -111.87,98.59 9.83,33.33 40.01,57.92 76.2,59.34 0.52,0.05 1.1,0.05 1.62,0.05 0.58,0.05 1.15,0.05 1.73,0.05l80.38 0c0.84,-51.24 1.47,-95.81 1.89,-126.38 0.15,-13.5 0.26,-24.24 0.36,-31.65 0.06,-7.41 0.11,-11.44 0.11,-11.44 -0.05,0 -0.05,0 -0.11,0 -15.84,1.9 -35.3,7.1 -44.71,9.81z"/>
   <path class="fil6" d="M3341.24 1492.09c-4.08,-1.54 -6.85,-2.14 -8.27,-2.37 -0.05,0 -0.05,0 -0.05,-0.03 -10.67,-2.71 -34.88,-8.51 -54.23,-10.83 0,0 0,0 0,0.02 0,0.43 0.05,9.66 0.21,25.58l0 0.03c0.1,10.19 0.21,23.16 0.36,38.33 0.26,28.25 0.63,64.12 1.15,104.11l87.03 0c1.36,0 2.72,-0.05 4.08,-0.12 36.03,-1.75 66,-26.47 75.62,-59.82 -52.24,-68.41 -89.53,-88.86 -105.9,-94.9z"/>
   <path class="fil14" d="M3262.63 1335.19c-1.52,7.6 -7.27,12.47 -17,14.43 -7.37,1.51 -14.48,0.7 -14.54,0.68l-0.1 0c-7.22,0 -12.34,-4.22 -16.11,-13.27 -0.52,-1.19 -1.57,-4.02 -1.83,-7.02l0 0c0.47,0.19 1,0.41 1.47,0.68 0.52,0.26 1.15,0.06 1.41,-0.44 0.26,-0.5 0.05,-1.12 -0.42,-1.39 -0.84,-0.43 -1.67,-0.77 -2.51,-1.06l0 -0.02c0.16,-1.39 0.52,-2.73 1.25,-3.88 1.57,-2.33 4.55,-3.5 8.9,-3.5l26.25 0c4.65,0 8.73,1.7 11.14,4.67 2.2,2.66 2.88,6.16 2.09,10.12zm-64.69 -5.01c-0.26,2.92 -1.36,5.7 -1.83,6.85 -3.77,9.05 -8.9,13.27 -16.11,13.27l-0.11 0c-0.1,0.02 -7.16,0.83 -14.59,-0.68 -9.73,-1.96 -15.43,-6.83 -16.94,-14.43 -0.84,-3.96 -0.11,-7.46 2.04,-10.12 2.45,-2.97 6.53,-4.67 11.19,-4.67l26.2 0c4.39,0 7.38,1.17 8.94,3.5 0.79,1.17 1.15,2.61 1.21,4.08l0 0c-1.31,0.42 -2.15,0.81 -2.3,0.85 -0.53,0.24 -0.74,0.85 -0.47,1.37 0.15,0.39 0.52,0.6 0.94,0.6 0.1,0 0.26,-0.02 0.41,-0.09 0,0 0.58,-0.24 1.42,-0.53l0 0zm63.96 -6.19c-2.77,-3.38 -7.32,-5.32 -12.5,-5.32l-26.25 0c-4.97,0 -8.48,1.44 -10.36,4.27 -0.84,1.32 -1.31,2.8 -1.47,4.34l0 0c-4.39,-1.08 -8.68,-0.53 -11.66,0.22l0 0c-0.15,-1.62 -0.57,-3.17 -1.51,-4.56 -1.89,-2.83 -5.34,-4.27 -10.36,-4.27l-26.2 0c-5.18,0 -9.73,1.94 -12.5,5.32 -2.51,3.05 -3.35,7.05 -2.46,11.53 2.98,14.82 20.08,16.72 28.61,16.72 2.61,0 4.44,-0.17 4.81,-0.22 7.95,0 13.55,-4.58 17.68,-14.34 0.68,-1.65 1.78,-4.77 1.93,-8.03l0 0c2.88,-0.77 7.22,-1.44 11.56,-0.24l0 0c0.16,3.34 1.31,6.59 2.04,8.27 4.08,9.76 9.73,14.34 17.68,14.34 0.36,0.05 2.19,0.22 4.81,0.22 8.52,0 25.63,-1.9 28.55,-16.72 0.95,-4.48 0.11,-8.48 -2.4,-11.53z"/>
   <path class="fil3" d="M2340.07 1816.13l-425.63 0c-91.73,0 -166.1,-74.38 -166.1,-166.13l0 -425.6c0,-91.76 74.37,-166.13 166.1,-166.13l425.63 0c91.73,0 166.11,74.37 166.11,166.13l0 425.6c0,91.75 -74.38,166.13 -166.11,166.13z"/>
   <path class="fil13" d="M2408.04 1244.82l0 370.05c0,40.33 -24.84,74.88 -60.06,89.15 -2.06,0.83 -4.17,1.6 -6.31,2.3 -9.4,3.07 -19.39,4.72 -29.8,4.72l-370.07 0c-53.11,0 -96.17,-43.06 -96.17,-96.17l0 -370.05c0,-53.13 43.06,-96.19 96.17,-96.19l370.07 0c53.11,0 96.17,43.06 96.17,96.19z"/>
   <path class="fil24" d="M2130.01 1246.74l0 0c-10.33,-2.49 -22.37,-3.09 -36.37,-1.08 0,0 -25.1,2.48 -48.67,18.42 -18.75,12.66 -45.82,39.99 -15.56,114.99l14.34 25.8c-4.77,56.17 -27.77,56.17 -27.77,56.17 0,0 10.05,4.97 14.92,4.97 0,0 7.09,-2.72 8.48,-6.63 0,0 -1.39,6.17 -3.21,8.11 0,0 39.01,3.71 58.5,-11.03 10.58,-8.01 22.18,-26.78 29.66,-45.94l29.51 2.09c0.32,12.68 -4.24,27.19 -18.41,42.37 0,0 36.4,3.57 48.72,-6.53 0,0 -2.45,4.92 -4.68,7.12 0,0 40.69,1.47 57.5,-11.22 16.81,-12.68 6,-220.89 -106.96,-197.61z"/>
   <path class="fil8" d="M2271.04 1711.04l-288.12 0c-3.5,-22.37 -5.66,-43.2 -4.29,-63.22 1.68,-25.13 12.77,-47.76 25.87,-66.13 21.34,-29.97 47.97,-48.67 47.97,-48.67 0,0 0.68,-0.15 1.8,-0.34 2.07,-0.36 5.64,-0.93 9.42,-1.27l0.05 0c3.6,-1.89 5.04,-14.94 5.47,-30.21 0.14,-4.27 0.17,-8.68 0.17,-13.07 -0.03,-3.81 -0.07,-7.62 -0.17,-11.39 -0.02,-1.77 -0.07,-3.5 -0.12,-5.22 -0.02,-0.5 -0.02,-0.99 -0.05,-1.47 -0.02,-0.74 -0.05,-1.46 -0.07,-2.18 -0.03,-0.55 -0.03,-1.1 -0.07,-1.65 0,-0.89 -0.05,-1.73 -0.08,-2.56 -0.04,-1.13 -0.09,-2.26 -0.14,-3.34 -0.02,-0.24 -0.02,-0.47 -0.02,-0.72 -0.05,-1.03 -0.1,-2.03 -0.14,-3.02 -0.06,-1.2 -0.12,-2.37 -0.17,-3.48l-0.05 -0.86c-0.1,-1.8 -0.19,-3.45 -0.29,-4.96 0,-0.41 -0.05,-0.82 -0.05,-1.2 -0.02,-0.46 -0.05,-0.89 -0.07,-1.32 -0.02,-0.43 -0.05,-0.81 -0.07,-1.2 -0.07,-1.27 -0.17,-2.32 -0.22,-3.19 0,-0.19 -0.02,-0.38 -0.02,-0.54 -0.03,-0.23 -0.05,-0.42 -0.05,-0.59 -0.05,-0.79 -0.07,-1.22 -0.07,-1.22l48.62 -9.61 0 0 33.33 -6.59 3.91 -0.77 0.98 -0.19 0 0.04c-0.05,12.5 0.65,24.06 1.85,34.56 1.03,8.91 2.44,17.07 4.1,24.43l0 0.02c6.06,26.88 15.51,43.06 22.32,45.72l0 0c0.24,0.1 0.46,0.2 0.69,0.24 33.16,6.81 83.56,92.84 87.78,185.17z"/>
   <path class="fil25" d="M2067.46 1438.05c0,0 1.85,25.77 1.92,50.08 45.86,-1.29 70.1,-43.13 80.03,-66.31l-81.95 16.23z"/>
   <path class="fil8" d="M2052.14 1461.04c0,0 108.51,1.8 108.59,-65.81 0.07,-67.59 14.14,-112.89 -55.15,-116.89 -69.29,-4 -82.79,21.77 -88.3,44.33 -5.51,22.57 6.61,136.17 34.86,138.37z"/>
   <path class="fil24" d="M2056.14 1276.69c0,0 29.71,79.31 75.31,91.03 45.6,11.73 65.38,-0.5 65.38,-0.5 0,0 -34.95,-27.79 -42.22,-76.29 0,0 -76.05,-52.01 -98.47,-14.24z"/>
   <path class="fil24" d="M2063.5 1283.11c0,0 -22.17,17.72 -27.59,34.94 -5.42,17.21 -7.84,52.65 -18.18,51.45 0,0 -22.39,-53.92 2.78,-84.42 26.67,-32.32 42.99,-1.97 42.99,-1.97z"/>
   <path class="fil24" d="M2059.38 1285.8c0,0 21.17,83.05 78.72,109.64 0,0 -57.55,-51.02 -62.44,-105.85 -4.87,-54.81 -16.28,-3.79 -16.28,-3.79z"/>
   <path class="fil18" d="M2333.89 1670c-1.86,-4.42 -3.7,-8.78 -5.48,-13.05 -0.9,-2.16 -1.79,-4.26 -2.68,-6.38 -0.03,-0.12 -0.05,-0.16 -0.05,-0.16 -25.1,-59.54 -44.95,-104.52 -46.9,-107.8 -5.6,-9.45 -82.04,-18.84 -93.24,-18.78 -8.13,0 -12.59,-26.92 -14.39,-41.66 -0.52,-4.06 -5.13,-6.19 -8.48,-3.87 -0.82,0.53 -1.61,1.08 -2.42,1.59 -1.01,0.64 -1.99,1.27 -3,1.92 -1.01,0.59 -2.02,1.19 -3.02,1.79 -0.7,0.39 -1.37,0.77 -2.04,1.16 -0.77,0.42 -1.53,0.83 -2.3,1.24 -0.67,0.38 -1.39,0.74 -2.09,1.1 -0.69,0.36 -1.39,0.7 -2.08,1.06 -0.72,0.33 -1.42,0.67 -2.09,0.98 -0.58,0.26 -1.1,0.53 -1.65,0.77 -1.03,0.48 -2.04,0.93 -3.05,1.34 -0.74,0.31 -1.46,0.62 -2.18,0.91 -0.51,0.22 -1.03,0.43 -1.54,0.62 -2.8,1.11 -5.58,2.12 -8.34,3.01 -23.3,7.66 -45.07,8.38 -57.66,5.41 -0.29,-0.1 -0.6,-0.17 -0.91,-0.24 -6.38,-1.65 -12.21,4.05 -10.84,10.53 1.68,7.65 2.11,16.01 -2.2,20.26 -19.4,4.31 -66.66,16.37 -75.51,33.18 -6.35,12.06 -6.95,83.03 -10.38,146.11l342.5 0c10.41,0 20.4,-1.65 29.8,-4.72 2.14,-0.7 4.25,-1.47 6.31,-2.3 -4.77,-11.61 -9.49,-23.02 -14.09,-34.02z"/>
   <path class="fil11" d="M2229.99 1711.04l-45.94 0c11.63,-19.23 22.71,-33.2 29.11,-34 5.51,-0.64 11.37,13.79 16.83,34z"/>
   <path class="fil11" d="M2185.54 1523.83c0,0 -57.23,36.26 -100.51,27.67 0,0 -10.4,-6.56 3.93,-13.16 13.46,-6.18 44.77,-24.51 37.91,-42.55 11.9,-3.87 24.17,-9.58 35.8,-17.49 3.38,-2.3 7.96,-0.19 8.48,3.87 1.8,14.74 6.26,41.66 14.39,41.66z"/>
   <path class="fil11" d="M2779.39 1723.27c0,0 87.15,89.14 91.37,123.53 4.24,34.35 -42.01,88.13 -42.01,88.13l-49.36 -211.66z"/>
   <path class="fil21" d="M2740.47 2668.05c0,0 -3,48.46 -12.37,49.15 -1.25,0.1 -47.55,0.1 -47.55,0.1l-59.12 -0.36c0,0 0.38,-14.24 17.67,-17.24 17.29,-3.02 46.2,-15.16 56.65,-38 11.01,-24.03 44.72,6.35 44.72,6.35z"/>
   <path class="fil21" d="M2872.12 2668.05c0,0 -2.99,48.46 -12.37,49.15 -1.25,0.1 -47.54,0.1 -47.54,0.1l-59.13 -0.36c0,0 0.39,-14.24 17.68,-17.24 17.28,-3.02 46.2,-15.16 56.65,-38 11.03,-24.03 44.71,6.35 44.71,6.35z"/>
   <path class="fil21" d="M2675.02 2147.22c0,0 15.44,98.88 73.12,274.4 57.67,175.53 65.53,251.54 65.53,251.54l61.86 -1.75c0,0 0.53,-191.81 -26.04,-280.07 -26.59,-88.28 -5.73,-318.21 -5.73,-318.21l-168.74 74.09z"/>
   <path class="fil24" d="M2644.9 2078.55c0,0 -2.18,149.01 23.59,331.95 25.78,182.94 17.05,260.59 17.05,260.59l61.74 2.07c0,0 36.9,-183.01 26.33,-274.58 -10.6,-91.59 50.51,-314.23 50.51,-314.23l-179.22 -5.8z"/>
   <path class="fil8" d="M2764.42 1729.86l-32.89 21.58 -47.54 -8.85c0.67,-3.86 3.8,-19.75 6.66,-34.16 0.17,-0.84 0.33,-1.7 0.5,-2.55 2.45,-12.24 4.56,-22.77 4.56,-22.77l44.4 -19.59 16.57 -7.31c-0.05,0.26 -1.29,13.61 -1.46,15.56 -3.12,34.6 9.2,58.09 9.2,58.09z"/>
   <path class="fil11" d="M2696.16 1719c0.94,-0.41 57.26,-17.02 63.37,-15.01 6.12,2.04 9.74,13.86 9.74,13.86l-92.12 20.84c0,0 7.24,-14.75 19.01,-19.69z"/>
   <path class="fil10" d="M2847.86 2096.94c-9.56,43.56 -168.46,48.74 -209.43,9.18 -4.65,-4.48 -4.89,-25.46 -3.12,-53.73 3.43,-55.24 14.46,-138.32 14.89,-180.78 0.21,-20.5 3.04,-41.46 6.78,-60.49 7.99,-40.59 20.17,-72.43 20.17,-72.43 0,0 77.61,-25.11 92.12,-20.84 69.98,20.57 88.13,335.55 78.59,379.09z"/>
   <path class="fil11" d="M2635.31 2052.39c3.43,-55.24 14.46,-138.32 14.89,-180.78 0.21,-20.5 3.04,-41.46 6.78,-60.49l46.69 -8.25c0,0 45.65,186.44 -68.36,249.52z"/>
   <path class="fil8" d="M2660.58 1975.4c0,0 3.19,7.61 -3.5,12.71 -6.69,5.11 -11.01,13.38 -9.49,19.42 1.53,6.07 16.2,15.92 21.29,14.34 5.08,-1.61 15.41,-9.57 14.31,-12.76 -1.12,-3.19 6.96,-27.98 -5.44,-37.54 -12.4,-9.55 -17.17,3.83 -17.17,3.83z"/>
   <path class="fil10" d="M2712.8 1727.51c0,0 -45.53,8.52 -81.83,61.98 -36.27,53.47 -60.16,93.22 -53.47,112.5 6.69,19.28 67.62,86.12 78.12,86.12 10.5,0 27.45,-7.65 28.41,-24.84 0,0 -42.89,-64.28 -34.45,-73.92 3.62,-4.1 55.69,-46.39 63.13,-27.28 12.3,31.6 0.09,-134.56 0.09,-134.56z"/>
   <path class="fil26" d="M2751.88 1672.36c-9.75,16.53 -46.08,30.82 -61.23,36.07 0.17,-0.84 0.33,-1.7 0.5,-2.55 2.45,-12.24 4.56,-22.77 4.56,-22.77l44.4 -19.59c9.83,-0.15 15.8,2.06 11.77,8.84z"/>
   <path class="fil8" d="M2678.97 1680.4c0,0 71.52,22.32 84.74,-22.44 13.2,-44.77 31.33,-72.03 -13.77,-88.16 -45.12,-16.14 -59.08,-1.68 -67.11,12.18 -8.03,13.88 -22.13,91.47 -3.86,98.42z"/>
   <path class="fil24" d="M2685.64 1577.66c0,0 4.55,52.08 15.34,49.83 10.77,-2.26 20.53,-3.94 18.97,11.76 -1.59,15.71 -8.92,40.65 24.29,43.43 33.2,2.78 73.29,-89.65 64.18,-105.86 -26.33,-46.77 -160.81,-56.2 -122.78,0.84z"/>
   <path class="fil8" d="M3935.63 747.33c0,0 -32.69,38.74 -74.27,22.53 0,0 -8.94,-21.63 -9.05,-37.58 0,-1.96 -0.05,-3.86 -0.05,-5.67 -0.26,-17.96 -0.84,-28.04 -0.84,-28.04 0,0 0,0 0.05,-0.01 1.89,-0.78 63.55,-26.1 63.5,-24 -1.05,48.57 20.66,72.77 20.66,72.77z"/>
   <path class="fil27" d="M3908.74 686.14c-5.91,11.03 -26.36,32.59 -56.48,40.47 -0.26,-17.96 -0.84,-28.04 -0.84,-28.04 0,0 0,0 0.05,-0.01 1.68,-0.45 59.05,-15.67 57.27,-12.42z"/>
   <path class="fil8" d="M3838.51 696.71c0,0 69.35,16.3 78.81,-27.04 9.52,-43.34 24.84,-70.43 -19.04,-82.67 -43.88,-12.25 -56.11,2.4 -62.81,16.1 -6.69,13.7 -14.8,88.25 3.04,93.61z"/>
   <path class="fil28" d="M3914.97 681.48c0.94,0.61 15.9,5.19 44.14,-51.11 4.39,-8.83 7.43,-27.95 -2.88,-44.85 -10.35,-16.89 -47.02,-30.17 -77.51,-35.95 -30.43,-5.78 -37.76,11.36 -44.92,28.59 -7.53,18.08 -29.29,32.97 -29.29,32.97 26.25,14.68 57.9,-6.31 68.88,-2.86 10.98,3.45 14.8,20.73 15.64,26.27 0.83,5.54 2.09,10.13 15.9,5.19 13.75,-4.95 6.22,19.53 4.02,24.22 0,0 -1.88,12.46 6.02,17.53z"/>
   <path class="fil5" d="M4093.62 1762.4l42 0c8.79,0 18.57,-8.82 21.02,-24.96 2.46,-16.16 20.56,-24.96 24.48,-38.17 3.87,-13.21 -16.16,-31.79 -16.16,-31.79l-3.35 -4.32 -3.5 -4.48 -33.26 7.81c0,0 -0.84,7.91 -1.31,18.01 -0.37,7.29 -0.58,15.7 -0.16,23.09 1,17.62 -4.97,36.59 -20.6,40.01 -15.64,3.43 -9.16,14.8 -9.16,14.8z"/>
   <path class="fil5" d="M3801.27 1762.4l111.34 0c1.05,-0.22 1.84,-0.46 2.36,-0.7 7.42,-3.71 5.07,-32.18 4.18,-40.97 -0.16,-1.61 -0.26,-2.57 -0.26,-2.57 0,0 -39.17,-31.31 -44.56,-7.33 -0.16,0.74 -0.37,1.48 -0.57,2.2l0 0c-6.8,22.45 -37.19,32.63 -54.71,35.46 -13.39,2.18 -16.89,10 -17.78,13.91z"/>
   <path class="fil6" d="M3823.7 1120.49c0,0 5.97,74.17 12.92,163.32 9.52,121.1 20.97,269.85 22.07,298.05 1.94,48.91 9.78,127.19 9.78,127.19 0,0 18.57,18.61 55.75,10.77 0,0 33.16,-111.76 42.63,-229.99 0.16,-1.91 0.31,-3.88 0.47,-5.82 8.79,-120.36 22.49,-373.79 22.49,-373.79l-166.11 10.27z"/>
   <path class="fil7" d="M3823.7 1120.49c0,0 5.97,74.17 12.92,163.32l130.23 206.02c0.16,-1.91 0.31,-3.88 0.47,-5.82 8.79,-120.36 22.49,-373.79 22.49,-373.79l-166.11 10.27z"/>
   <path class="fil6" d="M3850.85 1129.3c0,0 107.16,268.59 177.61,394.82 70.45,126.21 92.46,161.46 92.46,161.46 0,0 40.38,-16.16 44.04,-27.17 0,0 -26.93,-243.67 -74.11,-303.08 -26.67,-33.57 -58,-134.29 -59.46,-169.51 -1.47,-35.24 -9.52,-104.96 -9.52,-104.96l-171.02 48.44z"/>
   <path class="fil8" d="M4095.19 1080.5l1.15 17.27c0,0 -11.4,30.7 20.56,46.42 0,0 13.65,5.52 14.17,-5.13 0.58,-10.62 -1.2,-6.61 -0.05,-21.6 1.1,-14.98 -4.81,-29.14 -14.7,-33.9l-8.11 -9.38 -13.02 6.32z"/>
   <path class="fil29" d="M4107.69 1093.08c-11.87,3.8 -13.75,2.94 -13.75,2.94 0,0 -57.74,-105.09 -63.6,-114.71 -5.86,-9.62 -122.54,-117.85 -122.54,-117.85l29.97 -111.84c0,0 132.74,171.9 147.12,196.56 23.64,40.76 37.55,135.42 37.55,135.42 0,0 -5.44,6.49 -14.75,9.48z"/>
   <path class="fil30" d="M3801.06 907.37c0.47,22.97 1.78,48.79 3.61,75.01 0.1,1.56 0.21,3.12 0.31,4.67 1.15,16.25 2.41,32.53 3.82,48.41 0.57,6.36 1.2,12.66 1.83,18.84l0.1 0.83c0.06,2.32 0.32,4.83 0.58,7.12 5.86,59.47 11.98,106.45 13.13,107.17 1.36,0.91 2.87,1.36 4.6,1.17 15.58,-1.96 62.08,1.58 100.21,-6.71 32.16,-6.78 59.83,-19.63 89.17,-36.97 3.87,-2.3 12.76,-8.39 12.03,-12.95 -0.68,-5.01 -2.04,-12.25 -3.67,-21.34 -5.8,-31.63 -15.74,-86.06 -19.19,-149.74 -0.63,-11.87 -1.62,-23.58 -2.88,-35.1 -3.24,-30.01 -8.47,-58.51 -15.53,-83.83 -13.02,-47.04 -32.27,-83.06 -56.33,-97.14 -3.13,-1.77 -20.08,9 -35.61,18.99 -14.38,9.2 -29.5,11.74 -44.2,10.46l-12.97 14.31c-15.63,18.22 -32.32,42.47 -36.87,76.95 -0.36,2.54 -0.68,5.25 -0.89,8.13 -1.25,14.04 -1.57,31.82 -1.25,51.72z"/>
   <path class="fil29" d="M3801.06 907.37c0.47,22.97 1.78,48.79 3.61,75.01 0.1,1.56 0.21,3.12 0.31,4.67 89.07,-55.77 102.82,-157.81 102.82,-157.81 -43.82,1.92 -78.66,12 -105.49,26.41 -1.25,14.04 -1.57,31.82 -1.25,51.72z"/>
   <path class="fil27" d="M3537.83 809.17l-16.21 -8.32c0,0 -10.46,-34.51 -49.58,-29.57 0,0 -15.9,3.22 -9.26,13.15 6.7,9.93 5.55,5.27 14.65,19.44 9.1,14.18 23.85,23.41 35.93,21.78l13.54 3.58 10.93 -20.06z"/>
   <path class="fil30" d="M3521.99 813.68c4.55,-12.42 11.71,-11.62 11.71,-11.62 0,0 132.48,33.01 144.35,34.43 11.92,1.42 142.62,-51.06 142.62,-51.06 0,0 51.52,-23.1 75.57,-2 20.98,18.33 21.92,41.54 17,61.03 -5.8,23.24 -25.47,40.41 -49.21,43.43 -53.35,6.8 -159.78,19.59 -182.11,16.48 -49.63,-6.91 -162.13,-71.85 -162.13,-71.85 0,0 -1.41,-9.08 2.2,-18.84z"/>
   <path class="fil5" d="M1653.48 1803.35c0,0 3.77,-41.05 -42.1,-41.05 0,0 13.88,3.77 21.08,11.3 0,0 -29.25,-17.17 -61.09,9.23 -31.85,26.37 -12.06,92.57 -21.73,105.13 -9.68,12.56 -47.4,15.08 -42.77,55.72 4.6,40.64 119.64,91.52 112.26,125.13 0,0 45.07,-66.27 12.85,-96.5 0,0 15.7,14.79 17.31,32.39 0,0 4.27,-34.36 -17.6,-45.34 -19.35,-9.73 -35.17,-45.29 -33.52,-51.64 1.68,-6.36 55.31,-104.37 55.31,-104.37z"/>
   <path class="fil9" d="M1611.81 1996.48c-7.04,-34.05 -51.21,-44.62 -72.12,-16.81 -3.76,5.01 -6.39,10.91 -7.26,17.89 -4.77,38.67 57.04,196.15 65.91,210.41 16.11,25.94 111.01,114.94 111.01,114.94l17.48 -10.62c0,0 -67.3,-113.96 -77.73,-124.6 -12.04,-12.35 -23.84,-126.55 -37.29,-191.21z"/>
   <path class="fil31" d="M1601.65 1975.35c0,0 13.45,13.98 19.59,30.74 0,0 -21.46,61.62 -71.6,69.37 0,0 39.68,-100.13 52.01,-100.11z"/>
   <path class="fil5" d="M1640.49 1797.57c0.63,-2.49 -54.33,24.84 -57.11,27.93 -25.78,28.61 -18.44,65.91 -3.69,66.27 9.47,0.22 7.65,15.95 7.65,15.95l105.37 -44.58c0,0 -12.68,-73.98 -52.22,-65.57z"/>
   <path class="fil6" d="M1524.63 2691.02l-22.79 -3.36c0,0 -76.68,-60.94 -88.09,-174.64 -1.18,-11.56 -1.42,-23.3 -0.56,-35.15 0.1,-1.36 -0.04,-2.73 -0.79,-3.88l-0.02 -0.02c-2.47,-3.77 -8.58,-13.19 -16.83,-26.59 -8.16,-13.22 -22.1,-38.18 -37.45,-66.21 -27.67,-50.44 -59.85,-110.79 -70.9,-129.99 -35.17,-61.26 -18.22,-102.45 -18.22,-102.45 0,0 98.16,-9.71 125.04,-33.23l9.68 14.93c0,0 21.27,94.13 20.26,94.57 1.05,3.21 2.11,6.47 3.19,9.78 16.79,51.78 36.08,116.52 46.61,169.25 5.92,29.67 9.07,55.53 7.36,73.12 -0.57,6.05 0.15,15.32 1.75,26.78 9.5,67.57 41.76,187.09 41.76,187.09z"/>
   <path class="fil7" d="M1572.47 2719.86l-95.14 0c0,0 -2.28,-14.51 2.69,-25.51 4.77,-10.55 11.56,-10.88 0.86,-27.43 6.04,6.24 25.49,8.8 39.25,6.96 1.67,2.73 10.86,21.05 16.5,25.1 6.2,4.46 33.92,2.88 35.84,20.88z"/>
   <path class="fil7" d="M1427.15 2234.78c-8.3,45.84 -27.93,122.11 -69.05,146.39 -27.67,-50.44 -59.85,-110.79 -70.9,-129.99 -35.17,-61.26 -18.22,-102.45 -18.22,-102.45 0,0 98.16,-9.71 125.04,-33.23l9.68 14.93c0,0 21.27,94.13 20.26,94.57 1.05,3.21 2.11,6.47 3.19,9.78z"/>
   <path class="fil6" d="M1360.42 2155.8l0.34 -17.79c-35.46,4.46 -122.25,-42.37 -122.25,-42.37 0,0 -37.09,24.67 -42.18,95.12 -2.47,34.38 -18.15,179.82 -19.88,223.24 -0.65,15.75 -0.83,26.98 -0.91,31.46 0,0.02 0,0.04 0,0.04 -0.02,1.37 -0.67,2.59 -1.51,3.67 -7.34,9.33 -13.69,19.21 -19.2,29.44 -54.12,100.66 -25.82,237.44 -25.82,237.44l12.56 -3.21c0,0 45.75,-141.77 75.65,-203.1 5.08,-10.41 9.68,-18.49 13.54,-23.19 11.25,-13.64 23.09,-36.83 34.77,-64.73 22.08,-52.75 43.54,-122.38 58.81,-176.28 1.11,0.19 36.08,-89.74 36.08,-89.74z"/>
   <path class="fil8" d="M1567.91 2037.05c-57.97,-13.31 -20.93,-94.76 -17.57,-93.32 8.03,-1.63 25.65,-15.73 41.43,-43.27l2.14 1.84 35.6 31.21c0,0 -8.23,12.14 -15.16,24.03 -5.41,9.31 -9.99,18.49 -9.27,21.63 2.87,2.25 -21.72,61.42 -37.17,57.88z"/>
   <path class="fil9" d="M1629.51 1933.51c0,0 -8.25,12.14 -15.16,24.03 -22.12,-13.64 -22.15,-41.05 -20.44,-55.22l35.6 31.19z"/>
   <path class="fil8" d="M1630.49 1949.15c0,0 -53.73,-29.9 -34.6,-63.08 19.14,-33.19 25.08,-59.39 60.21,-41.7 35.12,17.7 34.43,34.17 30.74,46.8 -3.7,12.62 -41.87,64.91 -56.35,57.98z"/>
   <path class="fil5" d="M1695.9 1871.8c-2.45,-14.72 -9.93,-16.13 -15.16,-15.15 -19.84,-32.8 -52.26,-19.99 -52.26,-19.99 -17.31,21.72 -42.37,25.43 -42.37,25.43 0,0 6.24,11.61 31.94,18.77 7.84,2.21 16.76,0.87 25.34,-2.01 -17.81,9.93 -36.47,13.74 -36.47,13.74 33.86,3.09 66.08,-27.86 69.41,-31.17 1.59,4.79 4.32,14.84 2.67,22.18 -2.24,10 -11.08,28.05 -5.66,30.4 0,0 26.25,-20.09 22.56,-42.2z"/>
   <path class="fil7" d="M1204.67 2719.86l-95.13 0c0,0 -2.28,-14.51 2.68,-25.51 4.75,-10.55 12.23,-15.34 10.43,-28.12 6.04,6.23 15.9,13.21 29.66,11.34 1.68,2.73 10.89,17.36 16.5,21.41 6.23,4.46 33.95,2.88 35.86,20.88z"/>
   <path class="fil32" d="M1574.72 2101.61c-12.25,4.27 -29.42,6.6 -46.99,8.51 -25.03,2.74 -50.86,4.61 -64.38,10 -4.94,1.97 -8.24,4.41 -9.27,7.51 -5.88,17.64 -31.73,44.86 -31.73,44.86 -165.65,-7.55 -183.84,-76.85 -183.84,-76.85 111.46,-129.61 300.18,-167.14 300.18,-167.14 0,0 13.5,-5.7 47.44,21.27 22.64,18.03 19.66,24.93 19.66,24.93 0,0 4.97,114.35 -31.07,126.91z"/>
   <path class="fil31" d="M1527.73 2110.12c-25.03,2.74 -50.86,4.61 -64.38,10 -5.53,-82.62 33.45,-144.77 33.45,-144.77 0,0 25.44,103.51 30.93,134.77z"/>
   <path class="fil3" d="M2234.74 2717.3l-391.36 0c-84.37,0 -152.78,-68.41 -152.78,-152.78l0 -391.36c0,-84.37 68.41,-152.78 152.78,-152.78l391.36 0c84.37,0 152.78,68.41 152.78,152.78l0 391.36c0,84.37 -68.41,152.78 -152.78,152.78z"/>
   <path class="fil13" d="M2297.24 2191.93l0 340.3c0,23.3 -9.01,44.47 -23.73,60.27 -16.13,17.31 -39.15,28.15 -64.69,28.15l-340.29 0c-26.26,0 -49.82,-11.44 -66.01,-29.59 -13.95,-15.63 -22.42,-36.25 -22.42,-58.83l0 -340.3c0,-48.84 39.59,-88.42 88.43,-88.42l340.29 0c48.84,0 88.42,39.58 88.42,88.42z"/>
   <path class="fil5" d="M1972.03 2359.67c0,0 -49.39,-89.6 -4.07,-129.16 45.29,-39.56 125.06,-15.95 139.73,0 14.67,15.97 34.21,61.33 -6.3,125.83l-129.36 3.33z"/>
   <path class="fil19" d="M1992.51 2396.52c0,0 -1.77,55.31 -8.87,80.11l-56.04 39.08 210.95 31.57 -50.31 -69.5c0,0 -15.2,-74.18 -7.21,-101.62 7.96,-27.42 -88.52,20.36 -88.52,20.36z"/>
   <path class="fil20" d="M1992.19 2404.17c0.03,-0.03 16.69,40.14 48.13,39.27 31.41,-0.89 38.55,-36.42 38.55,-36.42l-86.68 -2.85z"/>
   <path class="fil19" d="M2036.7 2427.9c-22.75,-0.38 -64.67,-30.71 -64.67,-68.23l0 -58.6c0,-13.69 9.57,-24.91 21.25,-24.91l86.86 0c11.68,0 21.25,11.22 21.25,24.91l0 55.27c0,39.36 -38.58,72.02 -64.69,71.56z"/>
   <path class="fil33" d="M2273.51 2592.5c-16.13,17.31 -39.15,28.15 -64.69,28.15l-340.29 0c-26.26,0 -49.82,-11.44 -66.01,-29.59 72.92,-96.93 119.16,-103.02 120.36,-103.17 8.61,-2.68 29.59,-8.77 60.97,-11.98 0,0.81 24.44,36.61 53.23,40.59 17.91,-7.08 31.34,-14.01 50.9,-39.99 22.2,2.56 46.83,7.69 72.36,14.12l-0.02 -0.12c0,0 43.2,10.83 113.19,101.99z"/>
   <path class="fil5" d="M1972.03 2324.83c0,0 15.8,-48.24 67.59,-40.71 51.77,7.53 56.25,18.58 61.77,31.43 5.48,12.83 16.1,-46.92 16.1,-46.92l-61.06 -18.15c0,0 -73.9,8.42 -79.22,20.81 -5.3,12.4 -5.3,12.4 -5.3,12.4l0.12 41.14z"/>
   <path class="fil5" d="M2032.48 2231.52c0,0 -54.71,-49.73 -31.24,-60.35 23.47,-10.62 31.24,60.35 31.24,60.35z"/>
   <path class="fil5" d="M2030.27 2232.84c0,0 -69.19,-26.09 -51.29,-44.6 17.92,-18.53 51.29,44.6 51.29,44.6z"/>
   <path class="fil5" d="M2034.8 2234.27c0,0 -11.31,-64.13 16.02,-63.65 27.33,0.45 -16.02,63.65 -16.02,63.65z"/>
   <path class="fil5" d="M2038.64 2230.08c0,0 29.64,-68.98 57.21,-62.53 27.59,6.45 -57.21,62.53 -57.21,62.53z"/>
   <path class="fil5" d="M2037.1 2234.27c0,0 47.19,-58.43 72.01,-44.76 24.81,13.67 -72.01,44.76 -72.01,44.76z"/>
   <path class="fil8" d="M1553.48 1959.36c0,0 -62.72,6.19 -67.73,46.95 -5.04,40.73 60.11,206.67 69.43,221.7 16.98,27.36 116.98,121.11 116.98,121.11l18.44 -11.17c0,0 -70.92,-120.08 -81.9,-131.32 -17.26,-17.65 -34,-233.14 -55.22,-247.27z"/>
   <path class="fil32" d="M1487.55 2030.81c0.17,0.93 57.87,18.85 94.99,0 0,0 7.96,-85.69 -36.37,-81.04 -44.33,4.65 -70.59,18.63 -71.71,39.85 -1.11,21.22 13.09,41.19 13.09,41.19z"/>
   <path class="fil8" d="M1672.16 2349.12c0,0 -7.72,29.42 0,42.72 7.75,13.31 18.44,23.6 18.44,23.6l0 -77.49 -18.44 11.17z"/>
   <polygon class="fil17" points="3782.91,2717.3 3293.44,2717.3 3454.31,2020.38 3920.2,2020.38 3941.64,2029.8 "/>
   <polygon class="fil12" points="3759.32,2717.3 3269.8,2717.3 3430.72,2020.38 3920.2,2020.38 "/>
   <path class="fil3" d="M3788.77 2118.35l-225.88 0c-5.03,0 -10.05,4.1 -11.2,9.09 -1.15,4.98 1.99,9.06 7.01,9.06l225.88 0c5.03,0 10.05,-4.08 11.2,-9.06 1.15,-4.99 -1.99,-9.09 -7.01,-9.09z"/>
   <path class="fil3" d="M3783.96 2166.71l-238.54 0c-1.52,0 -3.09,1.25 -3.4,2.78 -0.37,1.51 0.57,2.76 2.09,2.76l238.54 0c1.52,0 3.08,-1.25 3.4,-2.76 0.36,-1.53 -0.58,-2.78 -2.09,-2.78z"/>
   <path class="fil3" d="M3780.98 2179.49l-238.54 0c-1.52,0 -3.04,1.25 -3.4,2.78 -0.37,1.51 0.62,2.76 2.14,2.76l238.54 0c1.52,0 3.03,-1.25 3.4,-2.76 0.37,-1.53 -0.63,-2.78 -2.14,-2.78z"/>
   <path class="fil3" d="M3459.17 2136.5l60.99 0c5.02,0 10.04,-4.08 11.19,-9.06 1.15,-4.99 -1.99,-9.09 -6.96,-9.09l-61.08 0c-4.97,0 -9.99,4.1 -11.14,9.09 -1.15,4.98 1.98,9.06 7,9.06z"/>
   <path class="fil3" d="M3751.58 2259.04l-225.93 0c-4.97,0 -9.99,4.08 -11.14,9.06 -1.15,4.99 1.98,9.09 6.95,9.09l225.94 0c4.97,0 9.99,-4.1 11.14,-9.09 1.15,-4.98 -1.99,-9.06 -6.96,-9.06z"/>
   <path class="fil3" d="M3746.72 2307.37l-238.54 0c-1.52,0 -3.03,1.25 -3.4,2.79 -0.37,1.53 0.63,2.78 2.14,2.78l238.49 0c1.57,0 3.09,-1.25 3.45,-2.78 0.32,-1.54 -0.62,-2.79 -2.14,-2.79z"/>
   <path class="fil3" d="M3743.74 2320.16l-238.49 0c-1.57,0 -3.09,1.24 -3.4,2.78 -0.36,1.51 0.58,2.78 2.14,2.78l238.49 0c1.52,0 3.09,-1.27 3.4,-2.78 0.37,-1.54 -0.57,-2.78 -2.14,-2.78z"/>
   <path class="fil3" d="M3421.94 2277.19l61.03 0c4.97,0 10.04,-4.1 11.19,-9.09 1.15,-4.98 -2.04,-9.06 -7.01,-9.06l-61.03 0c-4.97,0 -10.04,4.08 -11.19,9.06 -1.15,4.99 1.99,9.09 7.01,9.09z"/>
   <path class="fil3" d="M3721.93 2399.71l-225.94 0c-4.97,0 -9.99,4.07 -11.14,9.09 -1.15,4.98 1.99,9.06 6.96,9.06l225.94 0c4.96,0 10.04,-4.08 11.19,-9.06 1.15,-5.02 -1.99,-9.09 -7.01,-9.09z"/>
   <path class="fil3" d="M3717.06 2448.07l-238.48 0c-1.57,0 -3.09,1.25 -3.45,2.76 -0.32,1.53 0.62,2.78 2.14,2.78l238.54 0c1.52,0 3.03,-1.25 3.4,-2.78 0.31,-1.51 -0.63,-2.76 -2.15,-2.76z"/>
   <path class="fil3" d="M3714.14 2460.85l-238.54 0c-1.52,0 -3.09,1.25 -3.4,2.75 -0.37,1.54 0.62,2.79 2.09,2.79l238.54 0c1.52,0 3.08,-1.25 3.45,-2.79 0.31,-1.5 -0.63,-2.75 -2.14,-2.75z"/>
   <path class="fil3" d="M3392.28 2417.86l61.04 0c5.02,0 10.04,-4.08 11.19,-9.06 1.15,-5.02 -1.99,-9.09 -7.01,-9.09l-61.03 0c-4.97,0 -9.99,4.07 -11.14,9.09 -1.15,4.98 1.98,9.06 6.95,9.06z"/>
   <path class="fil3" d="M3687.36 2546.13l-225.94 0c-5.02,0 -10.04,4.08 -11.19,9.07 -1.15,4.98 1.99,9.08 7.01,9.08l225.88 0c5.02,0 10.04,-4.1 11.19,-9.08 1.16,-4.99 -1.98,-9.07 -6.95,-9.07z"/>
   <path class="fil3" d="M3682.49 2594.47l-238.54 0c-1.51,0 -3.08,1.24 -3.39,2.78 -0.37,1.53 0.57,2.76 2.09,2.76l238.54 0c1.57,0 3.08,-1.23 3.4,-2.76 0.36,-1.54 -0.58,-2.78 -2.1,-2.78z"/>
   <path class="fil3" d="M3679.51 2607.25l-238.48 0c-1.57,0 -3.09,1.25 -3.4,2.78 -0.37,1.51 0.57,2.76 2.09,2.76l238.54 0c1.51,0 3.08,-1.25 3.4,-2.76 0.36,-1.53 -0.58,-2.78 -2.15,-2.78z"/>
   <path class="fil3" d="M3422.93 2546.13l-61.03 0c-5.02,0 -10.05,4.08 -11.2,9.07 -1.15,4.98 1.99,9.08 7.01,9.08l61.04 0c4.96,0 9.99,-4.1 11.14,-9.08 1.15,-4.99 -1.99,-9.07 -6.96,-9.07z"/>
   <path class="fil4" d="M3751.37 2071.76l-189.69 0c-13.02,0 -22.64,-12.06 -19.71,-24.72l7.16 -30.93 233.52 0 -8.68 37.65c-2.41,10.55 -11.82,18 -22.6,18z"/>
   <polygon class="fil34" points="3782.65,2016.11 3798.76,2020.38 3781.71,2020.38 "/>
   <path class="fil4" d="M3894.68 2701.09c0,4.46 -1.84,8.51 -4.76,11.46 -2.15,2.11 -4.87,3.67 -7.9,4.36 -1.15,0.24 -2.35,0.39 -3.56,0.39l-456.42 0c-8.89,0 -16.21,-7.29 -16.21,-16.21 0,-4.44 1.83,-8.51 4.76,-11.46 2.93,-2.92 7.01,-4.75 11.45,-4.75l456.42 0c1.21,0 2.41,0.15 3.56,0.41 7.22,1.63 12.66,8.1 12.66,15.8z"/>
   <polygon class="fil11" points="3882.02,2684.88 3941.64,2698.07 3882.02,2717.3 "/>
   <path class="fil11" d="M3522.61 2684.88l0 32.42 -100.57 0c-8.89,0 -16.21,-7.29 -16.21,-16.21 0,-4.44 1.83,-8.51 4.76,-11.46 2.93,-2.92 7.01,-4.75 11.45,-4.75l100.57 0z"/>
   <path class="fil7" d="M4856.26 2729.43l-4751.52 0c-3.47,0 -6.33,-2.83 -6.33,-6.3l0 0c0,-3.48 2.86,-6.34 6.33,-6.34l4751.52 0c3.45,0 6.33,2.86 6.33,6.34l0 0c0,3.47 -2.88,6.3 -6.33,6.3z"/>
  </g>
 </g>
</svg>
